<svg width="84" height="84" viewBox="0 0 84 84" fill="none" xmlns="http://www.w3.org/2000/svg">
<circle cx="42" cy="42" r="40" stroke="#243138" stroke-width="4"/>
<path d="M51.1512 14.6122C50.3702 13.8311 49.1038 13.8311 48.3228 14.6122C47.5417 15.3932 47.5417 16.6595 48.3228 17.4406L51.1512 14.6122ZM54.9544 24.0722C55.7354 24.8532 57.0017 24.8532 57.7828 24.0722C58.5638 23.2911 58.5638 22.0248 57.7828 21.2437L54.9544 24.0722ZM14.6303 42.103C14.3819 43.1792 15.0531 44.2531 16.1294 44.5015C17.2057 44.7498 18.2795 44.0787 18.5279 43.0024L14.6303 42.103ZM38.4694 31.6331C38.5429 30.531 37.709 29.578 36.6069 29.5045C35.5048 29.431 34.5517 30.2649 34.4783 31.367L38.4694 31.6331ZM39.6623 60.8724C38.7924 61.5532 38.6391 62.8102 39.3199 63.68C40.0006 64.5499 41.2577 64.7032 42.1275 64.0224L39.6623 60.8724ZM54.838 54.0751C55.7079 53.3943 55.8612 52.1373 55.1804 51.2674C54.4997 50.3976 53.2427 50.2443 52.3728 50.925L54.838 54.0751ZM48.3228 17.4406L54.9544 24.0722L57.7828 21.2437L51.1512 14.6122L48.3228 17.4406ZM18.5279 43.0024C18.7101 42.2128 19.3216 40.9858 20.5273 40.1455C21.6578 39.3575 23.5333 38.7541 26.594 39.5193L27.5642 35.6387C23.5512 34.6355 20.453 35.3215 18.2401 36.8639C16.1024 38.3538 15.0007 40.4978 14.6303 42.103L18.5279 43.0024ZM26.594 39.5193C30.6802 40.5408 33.7297 39.6327 35.7511 37.6758C37.6478 35.8397 38.3548 33.3516 38.4694 31.6331L34.4783 31.367C34.4086 32.4117 33.9551 33.8472 32.969 34.8019C32.1075 35.6359 30.5517 36.3856 27.5642 35.6387L26.594 39.5193ZM42.1275 64.0224L54.838 54.0751L52.3728 50.925L39.6623 60.8724L42.1275 64.0224Z" fill="#243138"/>
<circle cx="63.5522" cy="37.0263" r="2.76316" fill="#243138"/>
<circle cx="29.2895" cy="56.9211" r="2.76316" fill="#243138"/>
<circle cx="29.2895" cy="19.342" r="2.76316" fill="#243138"/>
<path d="M9.94727 63.0001L72.9473 18.7896" stroke="#243138" stroke-width="7"/>
</svg>
