<svg width="102" height="102" viewBox="0 0 102 102" fill="none" xmlns="http://www.w3.org/2000/svg">
<g clip-path="url(#clip0)">
<path d="M94.7724 54.6017C94.2849 53.9153 93.333 53.754 92.6469 54.2415C91.9604 54.7288 91.7991 55.6806 92.2866 56.3671C93.8043 58.505 93.7083 61.4214 92.0531 63.4595C90.0135 65.9702 86.3118 66.3542 83.8008 64.3149C82.5845 63.327 81.8256 61.9244 81.6639 60.3657C81.5022 58.807 81.9576 57.2787 82.9453 56.0623C84.439 54.2233 86.8737 53.4643 89.148 54.1288C89.9565 54.365 90.8026 53.9013 91.0389 53.0932C91.2749 52.2852 90.8113 51.4386 90.0032 51.2024C86.5475 50.1926 82.8483 51.3457 80.5788 54.1401C77.4795 57.9559 78.0625 63.5818 81.8785 66.681C84.2195 68.5824 87.2409 69.098 89.943 68.3313C91.6455 67.8485 93.2217 66.8562 94.4196 65.3811C96.9348 62.2844 97.0799 57.8518 94.7724 54.6017Z" fill="#243138"/>
<path d="M96.1141 48.2987C93.3155 46.1915 89.834 45.1919 86.3115 45.4844C82.7877 45.7768 79.5196 47.3377 77.1085 49.8787C76.3453 50.6834 75.6833 51.5628 75.1293 52.5074L58.8122 39.2549L55.5407 7.68586C59.888 11.8628 62.6614 17.4782 63.2903 23.5475L65.1504 41.4959C65.2374 42.3332 65.9865 42.9418 66.824 42.8548C66.9137 42.8456 67.001 42.8288 67.0846 42.8051C67.784 42.6067 68.2606 41.9292 68.1831 41.1816L66.323 23.2333C65.4786 15.085 61.1796 7.66858 54.5289 2.88554C54.0416 2.5351 53.3944 2.50282 52.8745 2.8044C52.3552 3.10543 52.0608 3.68322 52.1226 4.28035L55.4655 36.5366L43.9595 27.1917C43.3059 26.6609 42.3458 26.7604 41.8151 27.4138C41.2842 28.0672 41.3838 29.0275 42.0372 29.5582L67.9794 50.6281L65.8114 56.6915L41.1313 36.6468C36.3972 32.8019 33.2149 27.4122 32.0948 21.4832L38.016 26.2922C38.6695 26.823 39.6297 26.7234 40.1604 26.0701C40.6912 25.4167 40.5917 24.4566 39.9382 23.9257L31.1126 16.7577C30.6467 16.3791 30.0019 16.3107 29.4657 16.5807C28.9297 16.8508 28.6018 17.4115 28.6287 18.0113C28.9946 26.1944 32.851 33.8491 39.2095 39.0133L57.2398 53.6573L57.968 60.6829C57.2448 60.6481 56.5186 60.6678 55.7947 60.7431C51.9859 61.1379 48.5582 62.9928 46.1432 65.9661C43.7285 68.9394 42.6159 72.6745 43.0106 76.4837C43.4053 80.2935 45.2604 83.7215 48.2337 86.1363C51.2067 88.5506 54.9418 89.6628 58.7513 89.2678C59.594 89.1805 60.418 89.0219 61.2165 88.7954C64.0282 87.998 66.5235 86.361 68.404 84.0458C70.8184 81.073 71.9305 77.3375 71.5357 73.5274L70.6011 64.5091L78.2982 70.7605C81.3425 73.2331 85.1653 74.3691 89.0629 73.9597C89.9034 73.8713 90.7243 73.7128 91.519 73.4874C94.3231 72.6922 96.8009 71.066 98.6555 68.7698C101.119 65.7186 102.211 61.8939 101.73 58.0001C101.248 54.1079 99.2539 50.6625 96.1141 48.2987ZM68.5026 73.8414C68.8137 76.8416 67.938 79.7827 66.0369 82.1234C64.1358 84.4639 61.4371 85.9243 58.4366 86.2349C55.4373 86.5457 52.4963 85.67 50.1555 83.769C47.8144 81.8679 46.3539 79.1688 46.0431 76.1689C45.7323 73.1698 46.6083 70.2289 48.5098 67.8878C50.4112 65.5466 53.1104 64.0863 56.1093 63.7753C57.2078 63.6615 58.3132 63.7087 59.3938 63.9156C59.8676 64.0063 60.3558 63.8677 60.7113 63.5418C61.0665 63.2158 61.2467 62.7409 61.1971 62.2613L60.5872 56.3756L67.2542 61.7905L68.5026 73.8414ZM98.7033 58.3738C99.0825 61.4397 98.2228 64.4514 96.2828 66.8535C94.4156 69.1657 91.738 70.6124 88.7438 70.9271C85.6579 71.2513 82.6303 70.3515 80.2197 68.3935L69.6698 59.8248C69.6673 59.8227 69.6649 59.8207 69.6622 59.8187L68.321 58.7292L70.489 52.6658L74.6847 56.0733C75.0589 56.3774 75.5546 56.4864 76.0218 56.3675C76.4912 56.2498 76.8721 55.9156 77.0557 55.47C77.5885 54.1748 78.3506 52.9997 79.321 51.977C81.2158 49.9798 83.7887 48.7526 86.5645 48.5225C89.3405 48.292 92.081 49.0774 94.281 50.734C96.7538 52.5965 98.3245 55.3096 98.7033 58.3738Z" fill="#243138"/>
<path d="M56.3538 66.1376C53.9848 66.3831 51.8538 67.5363 50.3525 69.3848C48.8511 71.2333 48.1595 73.5558 48.4049 75.9245C48.9117 80.8142 53.3023 84.3801 58.1918 83.8734C58.7155 83.819 59.2277 83.7205 59.724 83.5798C61.4721 83.084 63.0236 82.0659 64.1931 80.6264C65.6945 78.7779 66.3861 76.4554 66.1407 74.0867C65.6338 69.1966 61.2435 65.631 56.3538 66.1376ZM63.108 74.4008C63.4415 77.6184 61.0964 80.5081 57.8773 80.8408C54.6597 81.1743 51.7707 78.8279 51.4373 75.6101C51.1038 72.3925 53.4497 69.5036 56.668 69.1701C59.8856 68.8368 62.7747 71.1832 63.108 74.4008Z" fill="#243138"/>
<path d="M63.0613 48.5812C62.4258 48.4451 61.7559 48.7333 61.4249 49.2945C61.0514 49.9278 61.1949 50.7512 61.7494 51.2297C62.7715 52.1121 64.3896 51.2433 64.2515 49.9114C64.1846 49.2656 63.6973 48.7174 63.0613 48.5812Z" fill="#243138"/>
<path d="M39.7694 59.9666L39.7423 59.9109C38.8261 58.0349 36.7033 57.0865 34.6949 57.6561L27.2392 59.7705C25.8853 60.1545 24.4959 59.9946 23.5064 59.4221L33.087 56.705C33.8969 56.4754 34.3674 55.6325 34.1377 54.8225C33.9079 54.0124 33.0652 53.5421 32.2551 53.7718L21.5869 56.7974C21.1737 56.0097 20.7728 55.2176 20.3846 54.4214L30.7108 51.4929C31.5206 51.2632 31.9912 50.4204 31.7614 49.6103C31.5317 48.8003 30.6889 48.3299 29.8789 48.5596L19.0765 51.6232C18.7185 50.8203 18.372 50.0138 18.0386 49.2028L28.8338 46.1412C29.6437 45.9115 30.1142 45.0687 29.8845 44.2586C29.6548 43.4488 28.812 42.9782 28.0019 43.208L16.9249 46.3495C16.6208 45.5305 16.329 44.7075 16.0497 43.8807L27.2888 40.6933C28.0986 40.4636 28.5692 39.6208 28.3394 38.8108C28.1097 38.0007 27.2669 37.5303 26.4569 37.7601L15.1214 40.9749C14.8711 40.1401 14.6334 39.3021 14.4083 38.4602L25.8534 35.2143C26.6633 34.9846 27.1338 34.1418 26.9041 33.3318C26.6743 32.5217 25.8316 32.0514 25.0215 32.2811L13.6728 35.4996C13.4766 34.6503 13.2929 33.7971 13.122 32.941L24.5317 29.7052C25.3416 29.4755 25.8121 28.6327 25.5824 27.8226C25.3526 27.0126 24.5099 26.5422 23.6998 26.7719L12.572 29.9278C12.43 29.062 12.3011 28.1931 12.1845 27.3208L23.3329 24.1591C24.1428 23.9294 24.6133 23.0866 24.3836 22.2765C24.1539 21.4665 23.3111 20.9961 22.5011 21.2258L11.8286 24.2526C11.7412 23.371 11.6664 22.4865 11.6047 21.5992L22.2728 18.5737C23.0827 18.344 23.5532 17.5012 23.3235 16.6911C23.0938 15.8812 22.251 15.4107 21.4409 15.6404L11.86 18.3576C12.4016 17.3509 13.5005 16.4851 14.8543 16.1012L22.3099 13.9868C24.3201 13.4167 25.6288 11.4945 25.4219 9.41585L25.4163 9.35952C25.2911 8.08647 24.6126 6.94278 23.5551 6.22221C22.4976 5.50205 21.1846 5.28899 19.9528 5.63831L5.98048 9.60092C2.59937 10.5598 0.265637 13.6945 0.305293 17.2237C0.380162 23.8373 2.86297 38.5702 14.2675 71.1988C14.5453 71.9934 15.416 72.4141 16.2094 72.1348C17.0041 71.8569 17.4233 70.9875 17.1454 70.1927C8.22661 44.675 3.45747 26.3467 3.35409 17.1891C3.32968 15.0328 4.75204 13.1185 6.81236 12.5341L20.7847 8.57154C21.2778 8.43169 21.6567 8.61874 21.8387 8.74278C22.0202 8.86657 22.3323 9.1501 22.3845 9.6794L22.3885 9.71957C22.449 10.3267 22.0662 10.8882 21.4785 11.0549L14.0228 13.1694C10.6434 14.1278 8.30057 16.9994 8.45221 19.9974C9.16276 34.0699 12.9622 47.4671 19.7452 59.8172C21.1901 62.4484 24.6917 63.6625 28.071 62.7041L35.5267 60.5897C36.1139 60.4232 36.7346 60.7005 37.0022 61.2483L37.0294 61.3042C37.2539 61.764 37.1373 62.169 37.0475 62.3693C36.958 62.5698 36.7343 62.9272 36.242 63.0668L31.3353 64.4583C28.5103 65.2595 26.7626 68.1397 27.3568 71.0156L31.8548 92.7859C32.1727 94.3238 31.238 95.8642 29.7272 96.2927C28.2229 96.7193 26.6625 95.9418 26.0976 94.484C24.4405 90.2083 21.8629 83.43 18.9944 75.4191C18.7107 74.6264 17.8355 74.2139 17.0454 74.4978C16.2527 74.7815 15.8404 75.6542 16.1241 76.4469C19.0038 84.4886 21.5913 91.2933 23.2548 95.5857C24.3917 98.5195 27.5319 100.084 30.5591 99.2259C33.5993 98.3637 35.4798 95.264 34.8408 92.1691L30.3427 70.3989C30.0702 69.0801 30.8717 67.7591 32.1674 67.3917L37.0741 66.0001C38.3045 65.6506 39.3097 64.7805 39.8314 63.6124C40.3529 62.4445 40.3302 61.1153 39.7694 59.9666Z" fill="#243138"/>
</g>
<defs>
<clipPath id="clip0">
<rect width="92.9304" height="92.9304" fill="white" transform="translate(-5.39648 12.8274) rotate(-15.8335)"/>
</clipPath>
</defs>
</svg>
