<svg width="84" height="78" viewBox="0 0 84 78" fill="none" xmlns="http://www.w3.org/2000/svg">
<g clip-path="url(#clip0)">
<path d="M11.497 66.8776L11.497 66.8776L8.25718 16.8184C8.25617 16.8045 8.25634 16.7918 8.25705 16.7808C8.25577 16.7706 8.25488 16.759 8.25488 16.7462V11.3744C8.25488 10.7727 8.74313 10.2844 9.34488 10.2844H32.4172C33.0189 10.2844 33.5072 10.7727 33.5072 11.3744V16.7471C33.5072 16.7595 33.5063 16.771 33.505 16.7812C33.5057 16.7923 33.5058 16.8048 33.5049 16.8185M11.497 66.8776L33.4972 16.8165L33.2555 16.8008L33.4959 16.8227C33.4956 16.8243 33.4952 16.8258 33.4949 16.8271C33.4936 16.8323 33.4924 16.8363 33.4918 16.8382L33.494 16.8316C33.4947 16.8292 33.4956 16.8263 33.4966 16.8228L33.5044 16.8235C33.5046 16.8218 33.5047 16.8201 33.5049 16.8185M11.497 66.8776C11.5964 68.4113 12.6472 69.6636 14.0425 70.1048V71.4046C12.8128 71.5585 11.8568 72.6051 11.8568 73.8771V75.4874C11.8568 76.8653 12.9767 77.9853 14.3546 77.9853H27.4066C28.7845 77.9853 29.9044 76.8653 29.9044 75.4874V73.8771C29.9044 72.6042 28.9468 71.5577 27.717 71.4045V70.1057C29.1132 69.6653 30.1656 68.4122 30.2651 66.8776L30.0156 66.8615L30.2651 66.8776L33.5049 16.8185M11.497 66.8776L33.4983 16.8165L33.505 16.817L33.5049 16.8185M28.0886 66.7361L28.0886 66.7362C28.0392 67.5034 27.3974 68.105 26.6287 68.105H15.1333C14.3647 68.105 13.7229 67.5034 13.6734 66.7362L13.6734 66.7361L10.5079 17.8362H31.2542L28.0886 66.7361ZM25.537 70.285V71.3785H16.2233V70.285H25.537ZM27.7244 73.8763V75.4866C27.7244 75.6618 27.5818 75.8044 27.4066 75.8044H14.3546C14.1794 75.8044 14.0368 75.6618 14.0368 75.4866V73.8763C14.0368 73.7015 14.1789 73.5593 14.3546 73.5593H27.4066C27.5823 73.5593 27.7244 73.7015 27.7244 73.8763ZM31.3272 12.4644V15.6562H10.4349V12.4644H31.3272Z" fill="#243138" stroke="#243138" stroke-width="0.5"/>
<path d="M38.7517 16.8081V16.8C38.7517 16.7935 38.7519 16.7874 38.7523 16.7817C38.7509 16.7712 38.75 16.7593 38.75 16.7462V11.3744C38.75 10.7727 39.2382 10.2844 39.84 10.2844H62.9123C63.514 10.2844 64.0023 10.7727 64.0023 11.3744V16.7462C64.0023 16.7587 64.0014 16.7702 64.0001 16.7804C64.0008 16.7915 64.001 16.804 64 16.8177M38.7517 16.8081L63.9924 16.8156L63.7506 16.8L63.9911 16.8218C63.9907 16.8235 63.9903 16.8249 63.99 16.8263C63.9887 16.8315 63.9875 16.8355 63.9869 16.8374M38.7517 16.8081L38.7522 16.8161L41.9921 66.8768L41.9921 66.8768C42.0916 68.4105 43.1423 69.6628 44.5376 70.1039V71.4038C43.308 71.5577 42.3519 72.6042 42.3519 73.8763V75.4866C42.3519 76.8645 43.4718 77.9844 44.8498 77.9844H57.9017C59.2796 77.9844 60.3995 76.8645 60.3995 75.4866V73.8763C60.3995 72.6034 59.4419 71.5568 58.2122 71.4036V70.1049C59.6084 69.6645 60.6607 68.4113 60.7602 66.8768L60.5107 66.8606L60.7602 66.8768L64 16.8177M38.7517 16.8081L63.9934 16.8157L64.0001 16.8161L64 16.8177M64 16.8177C63.9999 16.8193 63.9997 16.821 63.9996 16.8226L63.9917 16.8219C63.9907 16.8254 63.9898 16.8284 63.9891 16.8307L63.9869 16.8374M63.9869 16.8374L63.9865 16.8387C63.9862 16.8396 63.9862 16.8396 63.9864 16.839C63.9865 16.8386 63.9867 16.838 63.9869 16.8374ZM58.5838 66.7361L58.5838 66.7362C58.5343 67.5034 57.8925 68.105 57.1238 68.105H45.6284C44.8598 68.105 44.218 67.5034 44.1685 66.7362L44.1685 66.7361L41.003 17.8362H61.7493L58.5838 66.7361ZM61.8223 12.4644V15.6562H40.93V12.4644H61.8223ZM56.0322 70.285V71.3785H46.7184V70.285H56.0322ZM58.2195 73.8763V75.4866C58.2195 75.6618 58.0769 75.8044 57.9017 75.8044H44.8498C44.6745 75.8044 44.5319 75.6618 44.5319 75.4866V73.8763C44.5319 73.7015 44.674 73.5593 44.8498 73.5593H57.9017C58.0774 73.5593 58.2195 73.7015 58.2195 73.8763Z" fill="#243138" stroke="#243138" stroke-width="0.5"/>
</g>
<defs>
<clipPath id="clip0">
<rect width="84" height="78" fill="white"/>
</clipPath>
</defs>
</svg>
