<svg width="101" height="101" viewBox="0 0 101 101" fill="none" xmlns="http://www.w3.org/2000/svg">
<g clip-path="url(#clip0)">
<path d="M41.4877 15.2633L20.174 19.7435C17.971 20.2066 16.5547 22.3768 17.0178 24.5798L22.6179 51.2219C23.081 53.4249 25.2512 54.8412 27.4542 54.3781L48.7679 49.898C50.9709 49.4349 52.3873 47.2647 51.9242 45.0617L46.324 18.4196C45.8609 16.2166 43.6907 14.8003 41.4877 15.2633ZM49.26 45.6217C49.4142 46.3554 48.9416 47.0796 48.2079 47.2338L26.8942 51.7139C26.1605 51.8682 25.4363 51.3955 25.2821 50.6618L19.682 24.0198C19.5277 23.2861 20.0004 22.5619 20.7341 22.4077L42.0477 17.9276C42.7814 17.7733 43.5056 18.246 43.6598 18.9796L49.26 45.6217Z" fill="#243138"/>
<path d="M22.626 24.7915L25.2902 24.2315L25.8502 26.8957L23.186 27.4557L22.626 24.7915Z" fill="#243138"/>
<path d="M27.9541 23.6719L30.6183 23.1119L31.1783 25.7761L28.5141 26.3361L27.9541 23.6719Z" fill="#243138"/>
<path d="M33.2832 22.5518L35.9474 21.9917L36.5074 24.6559L33.8432 25.216L33.2832 22.5518Z" fill="#243138"/>
<path d="M38.6113 21.4316L41.2755 20.8716L41.8355 23.5358L39.1713 24.0958L38.6113 21.4316Z" fill="#243138"/>
<path d="M23.7461 30.1201L26.4103 29.5601L26.9703 32.2243L24.3061 32.7843L23.7461 30.1201Z" fill="#243138"/>
<path d="M29.0742 29L31.7384 28.44L32.2984 31.1042L29.6342 31.6642L29.0742 29Z" fill="#243138"/>
<path d="M34.4023 27.8799L37.0666 27.3199L37.6266 29.9841L34.9624 30.5441L34.4023 27.8799Z" fill="#243138"/>
<path d="M39.7314 26.7603L42.3957 26.2002L42.9557 28.8644L40.2915 29.4245L39.7314 26.7603Z" fill="#243138"/>
<path d="M24.8662 35.4482L27.5304 34.8882L28.0904 37.5524L25.4262 38.1125L24.8662 35.4482Z" fill="#243138"/>
<path d="M30.1943 34.3286L32.8585 33.7686L33.4186 36.4328L30.7544 36.9928L30.1943 34.3286Z" fill="#243138"/>
<path d="M35.5225 33.2085L38.1867 32.6485L38.7467 35.3127L36.0825 35.8727L35.5225 33.2085Z" fill="#243138"/>
<path d="M40.8516 32.0884L43.5158 31.5284L44.0758 34.1926L41.4116 34.7526L40.8516 32.0884Z" fill="#243138"/>
<path d="M25.9863 40.7769L28.6505 40.2168L29.2105 42.881L26.5463 43.4411L25.9863 40.7769Z" fill="#243138"/>
<path d="M31.3145 39.6567L33.9787 39.0967L34.5387 41.7609L31.8745 42.3209L31.3145 39.6567Z" fill="#243138"/>
<path d="M36.6426 38.5366L39.3068 37.9766L39.8668 40.6408L37.2026 41.2008L36.6426 38.5366Z" fill="#243138"/>
<path d="M41.9717 37.4165L44.6359 36.8565L45.1959 39.5207L42.5317 40.0807L41.9717 37.4165Z" fill="#243138"/>
<path d="M27.1064 46.1055L29.7706 45.5455L30.3307 48.2097L27.6665 48.7697L27.1064 46.1055Z" fill="#243138"/>
<path d="M32.4346 44.9854L35.0988 44.4253L35.6588 47.0895L32.9946 47.6496L32.4346 44.9854Z" fill="#243138"/>
<path d="M37.7627 43.8652L40.4269 43.3052L40.9869 45.9694L38.3227 46.5294L37.7627 43.8652Z" fill="#243138"/>
<path d="M43.0918 42.7451L45.756 42.1851L46.316 44.8493L43.6518 45.4093L43.0918 42.7451Z" fill="#243138"/>
<path d="M43.0311 9.3748L16.389 14.975C12.7166 15.7469 10.3566 19.3631 11.1286 23.0355L17.8487 55.006C18.6207 58.6784 22.2369 61.0384 25.9093 60.2665L28.5735 59.7064C30.7765 59.2434 32.9468 60.6597 33.4098 62.8627L38.9619 89.2758C39.7028 92.8006 42.9759 95.2572 46.4141 94.87C46.63 94.847 46.8455 94.8126 47.0556 94.7684C48.7116 94.4203 50.1917 93.468 51.1862 92.0922C52.3069 90.5417 52.7244 88.576 52.331 86.7047L46.7309 60.0627C46.2678 57.8596 47.6841 55.6894 49.8871 55.2263L52.5514 54.6663C56.2237 53.8944 58.5838 50.2781 57.8118 46.6058L51.0916 14.6353C50.3197 10.9629 46.7035 8.60287 43.0311 9.3748V9.3748ZM55.1476 47.1658C55.6107 49.3688 54.1944 51.539 51.9913 52.0021L49.3271 52.5621C45.6547 53.3341 43.2947 56.9503 44.0667 60.6227L49.6668 87.2647C49.9032 88.3893 49.6528 89.5667 48.9794 90.4988C48.2967 91.4417 47.2766 92.0263 46.1101 92.1669C44.0511 92.398 42.0814 90.8818 41.6261 88.7158L36.074 62.3027C35.3021 58.6303 31.6859 56.2703 28.0135 57.0422L25.3493 57.6023C23.1462 58.0653 20.976 56.649 20.5129 54.446L13.7928 22.4755C13.3297 20.2725 14.746 18.1022 16.949 17.6392L43.5911 12.039C45.7941 11.5759 47.9644 12.9923 48.4274 15.1953L55.1476 47.1658Z" fill="#243138"/>
<path d="M44.0586 87.0527L46.7228 86.4927L47.2828 89.1569L44.6186 89.7169L44.0586 87.0527Z" fill="#243138"/>
<path d="M66.2375 7.27868C65.9286 5.80933 64.4826 4.86563 63.0133 5.17449L55.0207 6.85454C53.5513 7.16339 52.6076 8.60941 52.9165 10.0788L68.8769 86.0086C69.34 88.2117 71.5102 89.628 73.7132 89.1649C75.9163 88.7018 77.3326 86.5316 76.8695 84.3286L69.8693 51.026L72.5335 50.466C74.0029 50.1571 74.9466 48.7111 74.6377 47.2418L82.6303 45.5617L74.2301 5.59863L66.2375 7.27868ZM71.9735 47.8018L69.3093 48.3618C67.84 48.6707 66.8963 50.1167 67.2051 51.586L74.2053 84.8886C74.3598 85.6236 73.8869 86.3465 73.1532 86.5007C72.4195 86.6549 71.6956 86.1836 71.5411 85.4486L55.5807 9.51874L63.5733 7.83869L71.9735 47.8018ZM72.1259 8.82285L72.6859 11.4871L67.3575 12.6071L66.7975 9.94288L72.1259 8.82285ZM71.8376 33.9207L71.2776 31.2565L76.606 30.1365L77.1661 32.8007L71.8376 33.9207ZM77.7261 35.4649L78.2861 38.1291L72.9577 39.2492L72.3977 36.5849L77.7261 35.4649ZM70.7176 28.5923L70.1576 25.9281L75.486 24.8081L76.046 27.4723L70.7176 28.5923ZM69.5976 23.2639L69.0376 20.5997L74.366 19.4797L74.926 22.1439L69.5976 23.2639ZM68.4775 17.9355L67.9175 15.2713L73.2459 14.1513L73.806 16.8155L68.4775 17.9355ZM74.0777 44.5776L73.5177 41.9134L78.8461 40.7933L79.4061 43.4575L74.0777 44.5776Z" fill="#243138"/>
</g>
<defs>
<clipPath id="clip0">
<rect width="84.3952" height="84.3952" fill="white" transform="translate(0.404297 18.335) rotate(-11.8707)"/>
</clipPath>
</defs>
</svg>
