<svg width="102" height="102" viewBox="0 0 102 102" fill="none" xmlns="http://www.w3.org/2000/svg">
<path d="M34.4877 17.2633L13.174 21.7435C10.971 22.2066 9.55468 24.3768 10.0178 26.5798L15.6179 53.2219C16.081 55.4249 18.2512 56.8412 20.4542 56.3781L41.7679 51.898C43.9709 51.4349 45.3873 49.2647 44.9242 47.0617L39.324 20.4196C38.8609 18.2166 36.6907 16.8003 34.4877 17.2633ZM42.26 47.6217C42.4142 48.3554 41.9416 49.0796 41.2079 49.2338L19.8942 53.7139C19.1605 53.8682 18.4363 53.3955 18.2821 52.6618L12.682 26.0198C12.5277 25.2861 13.0004 24.5619 13.7341 24.4077L35.0477 19.9276C35.7814 19.7733 36.5056 20.246 36.6598 20.9796L42.26 47.6217Z" fill="#243138"/>
<path d="M15.626 26.792L18.2902 26.232L18.8502 28.8962L16.186 29.4562L15.626 26.792Z" fill="#243138"/>
<path d="M20.9541 25.6719L23.6183 25.1119L24.1783 27.7761L21.5141 28.3361L20.9541 25.6719Z" fill="#243138"/>
<path d="M26.2832 24.5518L28.9474 23.9917L29.5074 26.6559L26.8432 27.216L26.2832 24.5518Z" fill="#243138"/>
<path d="M31.6113 23.4319L34.2755 22.8719L34.8355 25.5361L32.1713 26.0961L31.6113 23.4319Z" fill="#243138"/>
<path d="M16.7461 32.1204L19.4103 31.5603L19.9703 34.2246L17.3061 34.7846L16.7461 32.1204Z" fill="#243138"/>
<path d="M22.0742 31.0005L24.7384 30.4405L25.2984 33.1047L22.6342 33.6647L22.0742 31.0005Z" fill="#243138"/>
<path d="M27.4023 29.8804L30.0666 29.3204L30.6266 31.9846L27.9624 32.5446L27.4023 29.8804Z" fill="#243138"/>
<path d="M32.7314 28.7603L35.3957 28.2002L35.9557 30.8644L33.2915 31.4245L32.7314 28.7603Z" fill="#243138"/>
<path d="M17.8662 37.4487L20.5304 36.8887L21.0904 39.5529L18.4262 40.1129L17.8662 37.4487Z" fill="#243138"/>
<path d="M23.1943 36.3286L25.8585 35.7686L26.4186 38.4328L23.7544 38.9928L23.1943 36.3286Z" fill="#243138"/>
<path d="M28.5225 35.2085L31.1867 34.6485L31.7467 37.3127L29.0825 37.8727L28.5225 35.2085Z" fill="#243138"/>
<path d="M33.8516 34.0886L36.5158 33.5286L37.0758 36.1928L34.4116 36.7528L33.8516 34.0886Z" fill="#243138"/>
<path d="M18.9863 42.7771L21.6505 42.2171L22.2105 44.8813L19.5463 45.4413L18.9863 42.7771Z" fill="#243138"/>
<path d="M24.3145 41.657L26.9787 41.097L27.5387 43.7612L24.8745 44.3212L24.3145 41.657Z" fill="#243138"/>
<path d="M29.6426 40.5371L32.3068 39.9771L32.8668 42.6413L30.2026 43.2013L29.6426 40.5371Z" fill="#243138"/>
<path d="M34.9717 39.417L37.6359 38.857L38.1959 41.5212L35.5317 42.0812L34.9717 39.417Z" fill="#243138"/>
<path d="M20.1064 48.1055L22.7706 47.5455L23.3307 50.2097L20.6665 50.7697L20.1064 48.1055Z" fill="#243138"/>
<path d="M25.4346 46.9856L28.0988 46.4256L28.6588 49.0898L25.9946 49.6498L25.4346 46.9856Z" fill="#243138"/>
<path d="M30.7627 45.8655L33.4269 45.3055L33.9869 47.9697L31.3227 48.5297L30.7627 45.8655Z" fill="#243138"/>
<path d="M36.0918 44.7454L38.756 44.1853L39.316 46.8496L36.6518 47.4096L36.0918 44.7454Z" fill="#243138"/>
<path d="M36.0311 11.375L9.38903 16.9752C5.71664 17.7471 3.35662 21.3634 4.12856 25.0358L10.8487 57.0062C11.6207 60.6786 15.2369 63.0386 18.9093 62.2667L21.5735 61.7067C23.7765 61.2436 25.9468 62.6599 26.4098 64.863L31.9619 91.2761C32.7028 94.8008 35.9759 97.2574 39.4141 96.8702C39.63 96.8473 39.8455 96.8128 40.0556 96.7687C41.7116 96.4206 43.1917 95.4683 44.1862 94.0924C45.3069 92.542 45.7244 90.5763 45.331 88.705L39.7309 62.0629C39.2678 59.8599 40.6841 57.6896 42.8871 57.2266L45.5514 56.6665C49.2237 55.8946 51.5838 52.2784 50.8118 48.606L44.0916 16.6355C43.3197 12.9631 39.7035 10.6031 36.0311 11.375V11.375ZM48.1476 49.166C48.6107 51.3691 47.1944 53.5393 44.9913 54.0023L42.3271 54.5624C38.6547 55.3343 36.2947 58.9505 37.0667 62.6229L42.6668 89.265C42.9032 90.3896 42.6528 91.5669 41.9794 92.499C41.2967 93.442 40.2766 94.0265 39.1101 94.1671C37.0511 94.3982 35.0814 92.882 34.6261 90.7161L29.074 64.303C28.3021 60.6306 24.6859 58.2705 21.0135 59.0425L18.3493 59.6025C16.1462 60.0656 13.976 58.6493 13.5129 56.4462L6.79276 24.4757C6.32968 22.2727 7.746 20.1025 9.94905 19.6394L36.5911 14.0393C38.7941 13.5762 40.9644 14.9925 41.4274 17.1955L48.1476 49.166Z" fill="#243138"/>
<path d="M37.0586 89.0527L39.7228 88.4927L40.2828 91.1569L37.6186 91.7169L37.0586 89.0527Z" fill="#243138"/>
<path d="M59.2375 9.27892C58.9286 7.80958 57.4826 6.86588 56.0133 7.17473L48.0207 8.85478C46.5513 9.16364 45.6076 10.6097 45.9165 12.079L61.8769 88.0089C62.34 90.2119 64.5102 91.6282 66.7132 91.1652C68.9163 90.7021 70.3326 88.5319 69.8695 86.3288L62.8693 53.0262L65.5335 52.4662C67.0029 52.1574 67.9466 50.7114 67.6377 49.242L75.6303 47.562L67.2301 7.59888L59.2375 9.27892ZM64.9735 49.802L62.3093 50.362C60.84 50.6709 59.8963 52.1169 60.2051 53.5863L67.2053 86.8888C67.3598 87.6238 66.8869 88.3467 66.1532 88.501C65.4195 88.6552 64.6956 88.1839 64.5411 87.4489L48.5807 11.519L56.5733 9.83894L64.9735 49.802ZM65.1259 10.8231L65.6859 13.4873L60.3575 14.6073L59.7975 11.9431L65.1259 10.8231ZM64.8376 35.921L64.2776 33.2568L69.606 32.1367L70.1661 34.801L64.8376 35.921ZM70.7261 37.4652L71.2861 40.1294L65.9577 41.2494L65.3977 38.5852L70.7261 37.4652ZM63.7176 30.5926L63.1576 27.9284L68.486 26.8083L69.046 29.4725L63.7176 30.5926ZM62.5976 25.2642L62.0376 22.6L67.366 21.4799L67.926 24.1441L62.5976 25.2642ZM61.4775 19.9357L60.9175 17.2715L66.2459 16.1515L66.806 18.8157L61.4775 19.9357ZM67.0777 46.5778L66.5177 43.9136L71.8461 42.7936L72.4061 45.4578L67.0777 46.5778Z" fill="#243138"/>
<path d="M84.5503 32.2349C84.154 31.0459 83.9949 29.9141 84.0001 28.8639C84.0238 24.1258 90.0151 20.3639 93.3542 23.7254C95.213 25.5966 95.6227 28.6611 95.0508 31.2349C94.0508 35.7349 86.5503 38.2349 84.5503 32.2349Z" stroke="#243138" stroke-width="2"/>
<path d="M80.8516 13.6918C80.2315 15.978 75.5812 17.2481 74.3412 14.1998C72.9613 10.8077 78.7541 7.57938 80.5478 10.772C81.0454 11.6577 81.1095 12.7407 80.8516 13.6918Z" stroke="#243138" stroke-width="2"/>
</svg>
