<svg width="67" height="67" viewBox="0 0 67 67" fill="none" xmlns="http://www.w3.org/2000/svg">
<g clip-path="url(#clip0)">
<path d="M32.0732 8.27532C31.5339 8.24011 31.064 8.64695 31.0272 9.18766C30.9509 10.3068 32.0241 13.7512 34.2639 16.0727C34.9623 16.7965 35.7252 17.3513 36.5321 17.7309C35.0895 18.4662 33.6553 19.0518 32.0215 19.0518C32.0165 19.0518 32.011 19.0514 32.0063 19.0518C31.4651 19.0518 31.0259 19.4901 31.0249 20.0313C31.0238 20.5734 31.4625 21.0136 32.0044 21.0147H32.0218C34.5854 21.0147 36.6379 19.9129 38.6231 18.8473C40.3361 17.9279 41.9541 17.0592 43.7827 16.9726C44.3241 16.9471 44.7422 16.4872 44.7165 15.9457C44.6909 15.4045 44.2377 14.9858 43.6897 15.0119C42.0016 15.0919 40.5234 15.6733 39.1244 16.3696C37.912 16.3513 36.7786 15.8204 35.7528 14.7878C33.8082 12.8303 32.9664 9.83267 32.9855 9.31957C33.0215 8.77965 32.6134 8.31222 32.0732 8.27532Z" fill="#243138"/>
<path d="M37.1901 38.0971C37.7202 37.984 38.0582 37.4624 37.9451 36.9324C37.8321 36.4023 37.3102 36.065 36.7805 36.1774C35.3417 36.4842 34.2062 36.454 33.6452 36.3464C33.042 34.6232 32.2537 32.9152 29.8919 31.781C29.4033 31.5464 28.8169 31.7522 28.5823 32.2409C28.3477 32.7295 28.5535 33.3159 29.0421 33.5505C30.9429 34.4634 31.3854 35.7777 31.9981 37.5971C32.5842 39.3379 33.3138 41.5044 35.6298 43.5524C35.8166 43.7175 36.0485 43.7986 36.2796 43.7986C36.551 43.7986 36.8213 43.6867 37.0152 43.4673C37.3742 43.0612 37.3361 42.4409 36.9301 42.0819C35.5419 40.8545 34.8516 39.6099 34.3627 38.382C34.4462 38.3843 34.5298 38.3867 34.6159 38.3867C35.3978 38.3864 36.2832 38.2905 37.1901 38.0971Z" fill="#243138"/>
<path d="M1.5389 19.6967C2.32287 19.1556 3.61419 18.7701 5.10179 18.5702C3.68184 20.7676 2.5261 23.145 1.71739 25.5807C1.54662 26.0951 1.82508 26.6506 2.33962 26.8214C2.44222 26.8554 2.54651 26.8716 2.64897 26.8716C3.06039 26.8716 3.44355 26.6109 3.5803 26.1991C4.49003 23.4592 5.86758 20.7974 7.58209 18.4142C9.85445 18.422 12.1919 18.8323 13.722 19.7344C13.8784 19.8267 14.0501 19.8705 14.2195 19.8705C14.5554 19.8705 14.8828 19.6979 15.0659 19.3874C15.3412 18.9205 15.1858 18.3188 14.7189 18.0435C13.2038 17.1502 11.1756 16.6557 9.08762 16.4958C9.58266 15.9175 10.0969 15.3602 10.6314 14.8317C11.4364 14.0354 12.264 13.2336 13.1152 12.4443C13.2687 12.5851 13.4313 12.7226 13.6043 12.8564C14.5511 13.5877 15.7291 14.1444 16.6055 14.2745C16.6544 14.2818 16.7028 14.2852 16.7508 14.2852C17.229 14.2852 17.648 13.935 17.7204 13.4478C17.7999 12.9116 17.4297 12.4125 16.8937 12.3328C16.342 12.2509 15.3685 11.7961 14.5836 11.1206C16.4173 9.51919 18.3656 8.01968 20.4586 6.79367C20.6451 6.6844 20.8322 6.58024 21.0193 6.47646C22.1229 7.10446 23.2257 7.92559 23.9761 8.91764C24.2919 9.33494 24.5241 9.75304 24.6742 10.1751C24.6795 10.1923 24.6851 10.2093 24.6912 10.2262C24.9277 10.9219 24.9417 11.6288 24.7343 12.3616C24.5867 12.8831 24.8899 13.4255 25.4116 13.5731C25.501 13.5983 25.5908 13.6104 25.6792 13.6104C26.1073 13.6104 26.5007 13.3281 26.6231 12.8957C26.8933 11.9403 26.9079 10.983 26.6775 10.053C26.8537 9.82737 27.1269 9.50323 27.3613 9.22528C28.6122 7.74213 30.4478 5.56372 31.0393 3.48555C31.5654 3.45179 32.0964 3.43465 32.6329 3.43465C36.3983 3.43465 39.8588 4.34281 43.1743 5.74745C41.7915 6.6297 40.5895 7.74645 39.5963 8.66979L39.3499 8.89853C38.9525 9.2669 38.9288 9.88808 39.2973 10.2856C39.4908 10.4942 39.7536 10.5998 40.0174 10.5998C40.2561 10.5998 40.4955 10.5133 40.6844 10.3382L40.933 10.1073C42.2395 8.89264 43.7264 7.51077 45.3799 6.75925C47.7866 7.94614 50.1335 9.35431 52.4841 10.819C53.5032 11.4539 54.4547 12.1894 55.3384 13.0197C54.506 13.7085 53.6915 14.5077 52.9184 15.401C51.7193 14.0253 49.5132 12.3452 47.4234 11.6917C46.9058 11.5301 46.3556 11.8184 46.1937 12.3355C46.032 12.8528 46.3202 13.4033 46.8375 13.5651C49.0056 14.2431 50.9999 16.1065 51.6781 16.9677C49.4042 20.1154 48.2358 23.4707 48.4494 26.3173C48.488 26.8327 48.9183 27.2253 49.4271 27.2253C49.4517 27.2253 49.4766 27.2244 49.5016 27.2226C50.042 27.182 50.4474 26.711 50.4067 26.1705C50.2108 23.5594 51.5358 20.2155 53.951 17.2256C54.8153 16.1556 55.7519 15.2144 56.7034 14.4411C57.9757 15.9085 59.0753 17.6095 59.9916 19.5357C60.2245 20.0252 60.8101 20.233 61.2995 20.0002C61.7889 19.7674 61.9969 19.1817 61.7641 18.6923C60.8007 16.6675 59.6464 14.8687 58.3129 13.3028C59.3767 12.6623 60.4187 12.2592 61.3582 12.1506C61.8965 12.0883 62.2825 11.6016 62.2204 11.0629C62.1582 10.5245 61.6719 10.1384 61.1328 10.2007C59.806 10.3541 58.3721 10.927 56.9453 11.8417C55.8954 10.8205 54.7546 9.92119 53.5221 9.15318C51.9279 8.15983 50.3342 7.19174 48.7202 6.29588C48.9781 6.34691 49.2387 6.41732 49.5027 6.51415C50.0112 6.70102 50.5755 6.43995 50.7622 5.93118C50.9491 5.4224 50.6882 4.85853 50.1793 4.67166C48.4839 4.04903 46.9086 4.14299 45.4738 4.62193C41.4936 2.74437 37.3123 1.47177 32.6329 1.47177C32.1324 1.47177 31.6402 1.48577 31.1559 1.51233C31.1097 1.29812 31.0436 1.08783 30.9494 0.883556C30.7226 0.391527 30.1398 0.176526 29.6473 0.403305C29.1568 0.629429 28.9419 1.209 29.1649 1.70012C26.1665 2.10107 23.4821 3.01027 21.0263 4.25435C19.4226 3.47666 17.9346 3.07269 17.2465 3.07269C16.7045 3.07269 16.2651 3.51199 16.2651 4.05414C16.2651 4.59628 16.7044 5.03558 17.2465 5.03558C17.5088 5.03558 18.1094 5.18371 18.8642 5.46636C16.9344 6.65273 15.1439 8.03277 13.4439 9.50781C13.4112 9.39252 13.3873 9.27567 13.3753 9.15685C13.3213 8.61744 12.8404 8.22448 12.3009 8.27813C11.7616 8.33217 11.3681 8.81321 11.4221 9.35261C11.4753 9.88337 11.6362 10.4007 11.8957 10.8961C10.9944 11.729 10.1154 12.5812 9.25093 13.4362C8.30561 14.3713 7.41682 15.3868 6.59097 16.4605C4.0896 16.5797 1.76489 17.1557 0.42411 18.0812C-0.021988 18.3891 -0.134134 19.0002 0.173777 19.4464C0.481688 19.8926 1.09306 20.0047 1.5389 19.6967ZM28.8628 3.72882C28.1407 5.25581 26.6511 7.02254 25.8608 7.95962C25.8313 7.99469 25.8035 8.0278 25.7753 8.06116C25.7009 7.95111 25.6235 7.84171 25.5416 7.73323C24.874 6.85072 24.008 6.08755 23.0823 5.44791C24.9607 4.61487 26.8793 4.04354 28.8628 3.72882Z" fill="#243138"/>
<path d="M53.6724 35.6067C53.7193 35.6134 53.7662 35.6166 53.8124 35.6166C54.2929 35.6166 54.7127 35.2634 54.7827 34.7738C54.9159 33.8421 54.58 32.8967 53.8117 32.0401C53.3311 31.5043 52.3698 30.7192 51.6642 30.7192C51.6539 30.7192 51.6435 30.7195 51.6332 30.7198C51.0914 30.738 50.6671 31.1918 50.6851 31.7335C50.701 32.2063 51.0487 32.5899 51.4971 32.6677C51.8453 32.8312 52.9546 33.691 52.8396 34.4962C52.7629 35.0329 53.1357 35.53 53.6724 35.6067Z" fill="#243138"/>
<path d="M16.4667 32.3986C15.1226 32.803 12.7435 35.1374 12.3801 36.0458C12.1787 36.5491 12.4234 37.1203 12.9267 37.3216C13.0463 37.3695 13.1697 37.3921 13.291 37.3921C13.6757 37.3921 14.0404 37.1642 14.1971 36.7885C14.4729 36.2544 16.3322 34.4889 17.0324 34.2781C17.5515 34.122 17.8455 33.5746 17.6893 33.0555C17.5329 32.5365 16.9853 32.2424 16.4667 32.3986Z" fill="#243138"/>
<path d="M21.7074 48.6618C23.0849 50.3287 24.6463 52.2179 27.5132 53.5748C27.6488 53.6389 27.7917 53.6694 27.9323 53.6694C28.2999 53.6694 28.6524 53.4618 28.8201 53.1075C29.0518 52.6177 28.8427 52.0325 28.3528 51.8006C26.717 51.0266 25.5727 50.0476 24.6058 49.0155C24.8161 48.9624 25.0329 48.9057 25.2576 48.8468C27.3645 48.2949 29.9866 47.6077 31.1358 48.9916C31.3298 49.2253 31.6095 49.3459 31.8912 49.3459C32.1122 49.3459 32.3346 49.2717 32.5178 49.1196C32.9348 48.7732 32.992 48.1545 32.6457 47.7374C30.698 45.3923 27.2661 46.2913 24.7601 46.9481C24.1674 47.1033 23.6004 47.2514 23.1521 47.329C21.2655 45.0471 19.2805 42.713 14.2898 42.3614C13.7493 42.3233 13.2798 42.7306 13.2417 43.2713C13.2036 43.8121 13.611 44.2813 14.1517 44.3194C18.3637 44.6159 19.8392 46.4015 21.7074 48.6618Z" fill="#243138"/>
<path d="M66.8642 38.2093C66.5889 37.7425 65.9872 37.5872 65.5202 37.8624C65.3529 37.961 65.0459 38.148 64.6523 38.3942C64.8291 36.9044 64.9211 35.3598 64.9211 33.7593C64.9211 32.3613 64.8519 30.986 64.7141 29.6385C65.4795 28.2565 65.9557 26.7778 65.7307 25.1068C65.6584 24.5696 65.1637 24.1923 64.6272 24.265C64.2999 24.3089 64.0328 24.5099 63.8899 24.7815C63.7569 24.2284 63.6123 23.6812 63.4535 23.1417C63.3005 22.6216 62.755 22.3238 62.2351 22.477C61.7151 22.63 61.4175 23.1754 61.5705 23.6956C62.0887 25.4575 62.4629 27.2998 62.6913 29.2062C62.2308 29.9499 61.6733 30.6925 61.1039 31.4508C61.0809 31.4816 61.0578 31.5124 61.0346 31.5432C60.884 31.3495 60.7152 31.1381 60.5259 30.9013C58.9908 28.9799 56.4214 25.7641 57.3658 23.2682C57.5577 22.7613 57.3022 22.1948 56.7953 22.0029C56.2883 21.8107 55.7217 22.0664 55.53 22.5735C54.1898 26.1154 57.1962 29.8783 58.9925 32.1266C59.2821 32.489 59.6207 32.9129 59.8268 33.2063C58.986 34.4357 58.2571 35.7397 57.9139 37.2174C57.7911 37.7454 58.1198 38.2727 58.6477 38.3955C58.7224 38.4129 58.7972 38.4211 58.8707 38.4211C59.3168 38.4211 59.7205 38.1148 59.8258 37.6615C60.2426 35.8672 61.4786 34.2211 62.6737 32.6292C62.759 32.5155 62.8446 32.4015 62.93 32.2873C62.948 32.7747 62.9581 33.2652 62.9581 33.759C62.9581 35.8835 62.7916 37.902 62.4659 39.8099C60.7549 40.9578 58.9039 42.3058 58.4323 43.0348C58.1379 43.49 58.2676 44.0984 58.7227 44.3929C58.8877 44.4995 59.0726 44.5506 59.2554 44.5506C59.5768 44.5506 59.8915 44.3929 60.0792 44.1028C60.2316 43.8804 60.9057 43.3289 61.8399 42.6437C61.3384 44.4739 60.672 46.1847 59.8361 47.763C59.4177 48.5529 58.9562 49.3102 58.4539 50.0355C56.8458 50.516 55.3342 50.5237 53.8943 50.064C51.7075 49.3659 49.8617 47.6759 48.2969 45.898C50.3183 45.4277 52.487 45.144 54.5904 44.9333C55.1298 44.8793 55.5232 44.3982 55.4693 43.859C55.4151 43.3196 54.933 42.9258 54.3949 42.9801C48.3308 43.5876 41.7322 44.8061 38.7708 49.2387C38.4697 49.6893 38.591 50.2989 39.0417 50.5999C39.209 50.7118 39.3985 50.7654 39.5859 50.7654C39.9027 50.7654 40.2136 50.6122 40.4028 50.329C41.6357 48.4838 43.7306 47.2855 46.2074 46.4764C48.0758 48.709 50.3653 50.9978 53.297 51.9339C54.2121 52.2261 55.1414 52.3728 56.0886 52.3728C56.258 52.3728 56.4278 52.3674 56.5983 52.358C54.7709 54.3575 52.5608 56.0456 49.9808 57.3986C49.3863 57.7104 48.7925 58.0324 48.1853 58.3651C46.5482 57.9364 44.7497 57.0361 43.3527 56.2166C44.1554 55.9677 44.9858 55.6632 45.8395 55.2785C46.3336 55.0558 46.5537 54.4745 46.331 53.9804C46.1082 53.4863 45.5268 53.2665 45.0329 53.4889C42.3269 54.7085 39.7896 55.0796 37.7507 55.3778C35.9379 55.6428 34.3723 55.8717 33.2123 56.6066C32.7543 56.8966 32.6182 57.503 32.9083 57.9608C33.0952 58.2559 33.4132 58.4173 33.7383 58.4173C33.9179 58.4173 34.0998 58.3681 34.2626 58.2648C35.0697 57.7537 36.3782 57.5624 38.0348 57.32C38.859 57.1995 39.7605 57.0672 40.724 56.8764C41.3215 57.2801 42.6061 58.1095 44.1564 58.8831C44.7429 59.1757 45.307 59.4299 45.8492 59.647C41.6323 61.9421 37.2722 64.084 32.633 64.084C28.6602 64.084 25.063 63.5057 21.8756 62.3608C22.0304 61.5198 22.0895 60.6681 22.0504 59.8103C22.4695 59.7455 22.9372 59.6327 23.4696 59.5037C24.9373 59.1481 26.7637 58.7054 28.2567 59.2231C28.7692 59.4007 29.3279 59.1296 29.5054 58.6174C29.683 58.1053 29.4119 57.5462 28.8997 57.3686C26.8622 56.6619 24.634 57.2019 23.0072 57.5959C22.6249 57.6885 22.1557 57.8022 21.7955 57.8632C21.612 57.0089 21.3345 56.1525 20.9605 55.2992C19.7729 52.59 17.8716 50.5532 17.1367 49.9913C16.706 49.6622 16.09 49.7442 15.7608 50.1747C15.4316 50.6053 15.5137 51.2212 15.9443 51.5506C16.2485 51.7833 18.032 53.5079 19.1626 56.0871C19.5764 57.0312 19.853 57.9671 19.9949 58.8928C19.9988 58.9464 20.0061 58.9995 20.0186 59.0512C20.1363 59.9133 20.1362 60.7662 20.0176 61.6082C18.7377 61.0277 17.532 60.3468 16.4045 59.5641C15.9594 59.2552 15.3478 59.3655 15.0386 59.8108C14.7295 60.256 14.8398 60.8676 15.2853 61.1767C16.6063 62.0936 18.0227 62.8821 19.5301 63.5413C19.3237 64.1057 19.0624 64.6644 18.7452 65.2166C18.4752 65.6866 18.6375 66.2865 19.1075 66.5564C19.2617 66.6449 19.4296 66.6869 19.5955 66.6869C19.9355 66.6869 20.266 66.51 20.4475 66.1941C20.8114 65.5605 21.1136 64.9147 21.3546 64.2595C24.7182 65.4468 28.4891 66.0466 32.6328 66.0466C38.2993 66.0466 43.5675 63.1465 48.2155 60.5877C48.3075 60.5371 48.3968 60.488 48.4878 60.438C48.9978 60.531 49.4801 60.5792 49.9324 60.5792C50.4128 60.5792 50.8604 60.5266 51.2738 60.4211C51.7991 60.2873 52.1164 59.7528 51.9824 59.2277C51.9294 59.0198 51.8131 58.8453 51.66 58.7177C54.9116 56.8857 57.5943 54.5355 59.6746 51.7025C61.1389 51.1708 62.6525 50.3234 64.2289 49.1517C64.6638 48.8282 64.7544 48.2134 64.431 47.7785C64.1074 47.3435 63.4928 47.2529 63.0578 47.5763C62.5766 47.9339 62.1042 48.2562 61.6396 48.5457C62.834 46.2564 63.7056 43.7254 64.2485 40.9741C64.9994 40.4793 65.7777 39.9888 66.5169 39.5529C66.9842 39.2779 67.1394 38.6763 66.8642 38.2093Z" fill="#243138"/>
<path d="M9.89593 52.3992C10.3675 51.0032 11.0021 49.8171 11.7204 49.0225C12.0838 48.6203 12.0524 47.9998 11.6504 47.6362C11.2482 47.2729 10.6277 47.3042 10.264 47.7062C9.66117 48.3732 9.14245 49.2003 8.71009 50.1028C8.15014 48.9996 7.53642 47.887 6.938 46.8039C5.32307 43.8802 3.67019 40.8859 2.84539 37.7278C3.15278 36.6772 3.53122 35.7743 3.97117 34.9841C3.99904 35.0125 4.02469 35.0388 4.05387 35.0683C5.47173 36.512 8.42207 39.5158 8.42207 41.7827C8.42207 42.3249 8.86136 42.7641 9.40351 42.7641C9.94566 42.7641 10.385 42.3249 10.385 41.7827C10.385 38.7132 7.17734 35.4473 5.45419 33.6929C5.33629 33.5728 5.21302 33.4471 5.10035 33.3308C6.54516 31.5861 8.38818 30.4663 10.4234 29.2303C10.7822 29.0123 11.1447 28.7922 11.5096 28.566C11.9702 28.2802 12.1119 27.6752 11.8261 27.2146C11.5403 26.7541 10.9355 26.6124 10.4747 26.898C10.1154 27.1209 9.75814 27.3378 9.40456 27.5526C7.072 28.969 4.80474 30.3464 3.07779 32.7461C3.0702 32.7562 3.06196 32.7655 3.05463 32.7759C3.05005 32.7825 3.04704 32.789 3.04259 32.7957C2.78611 33.1557 2.54166 33.5385 2.31096 33.9478C2.31004 33.8849 2.30808 33.8222 2.30808 33.7592C2.30808 32.6851 2.39039 31.5829 2.55266 30.4834C2.6317 29.9472 2.2611 29.4485 1.72497 29.3692C1.19081 29.2904 0.689881 29.6606 0.610711 30.1969C0.434444 31.3909 0.345199 32.5895 0.345199 33.7592C0.345199 35.1268 0.520026 36.4464 0.819562 37.7284C0.375035 39.4276 0.0877994 41.4417 0.000647387 43.866C-0.0188506 44.4077 0.404478 44.8625 0.946234 44.8821C0.958273 44.8825 0.970312 44.8828 0.982089 44.8828C1.50788 44.8828 1.94325 44.4662 1.96222 43.9366C1.99167 43.1177 2.04427 42.3534 2.11755 41.6363C3.00425 43.7406 4.12035 45.7625 5.21982 47.753C5.98495 49.1383 6.70769 50.4466 7.34235 51.7619C7.4808 52.0486 7.62409 52.3314 7.77144 52.6108C7.04439 55.162 6.93538 57.7232 7.50436 58.7661C7.68246 59.0929 8.01955 59.278 8.36724 59.278C8.52597 59.278 8.68693 59.2394 8.83611 59.158C9.31191 58.8985 9.48752 58.3027 9.2279 57.8268C9.1024 57.585 9.0163 56.5784 9.24753 55.067C9.98191 56.146 10.7906 57.1533 11.6702 58.0788C11.8631 58.2819 12.1222 58.3843 12.3819 58.3843C12.6246 58.3843 12.8679 58.2946 13.0577 58.1143C13.4507 57.741 13.4665 57.1196 13.0932 56.7268C11.8774 55.4471 10.807 53.9955 9.89593 52.3992Z" fill="#243138"/>
<path d="M6.65983 23.656C6.26909 24.0315 6.25653 24.6528 6.63209 25.0436C6.82485 25.2441 7.08212 25.3451 7.33991 25.3451C7.58448 25.3451 7.82945 25.2543 8.01972 25.0714C8.59157 24.5222 9.75046 24.2771 10.4326 24.4007C10.9648 24.4967 11.4767 24.1435 11.5735 23.6101C11.6702 23.0768 11.3162 22.566 10.7828 22.4693C9.60547 22.2558 7.75996 22.5989 6.65983 23.656Z" fill="#243138"/>
<path d="M24.9748 42.5132C25.1673 42.7113 25.423 42.8108 25.679 42.8108C25.9254 42.8108 26.172 42.7187 26.3627 42.5334C26.7515 42.1557 26.7605 41.5344 26.3828 41.1456C25.4059 40.1398 23.2931 35.0755 24.5171 32.0711C25.2571 30.2545 25.5503 27.027 25.2822 23.6482C25.1449 21.9192 24.6395 17.6909 22.914 15.7737C22.5514 15.3706 21.9308 15.3382 21.528 15.7008C21.1252 16.0634 21.0925 16.6839 21.4551 17.0868C22.3596 18.0919 23.0763 20.6656 23.3253 23.8034C23.4554 25.4429 23.444 27.0558 23.309 28.434C21.4603 25.2599 18.6726 24.0582 17.0122 23.3434C16.6254 23.1771 16.2913 23.0332 16.0618 22.9057C15.5875 22.642 14.9903 22.8132 14.7273 23.2869C14.464 23.7608 14.6346 24.3584 15.1084 24.6214C15.4245 24.797 15.8007 24.9589 16.2362 25.1464C18.2457 26.0113 21.2588 27.3106 22.575 31.6659C21.2565 35.5319 23.5465 41.0428 24.9748 42.5132Z" fill="#243138"/>
</g>
<defs>
<clipPath id="clip0">
<rect width="67" height="67" fill="white"/>
</clipPath>
</defs>
</svg>
