<svg width="89" height="83" viewBox="0 0 89 83" fill="none" xmlns="http://www.w3.org/2000/svg">
<path d="M31.461 24.9816C37.2441 24.9816 41.0235 18.9392 41.0235 12.8111C41.0235 6.67007 37.2333 0.640625 31.461 0.640625C25.6779 0.640625 21.8984 6.68311 21.8984 12.8111C21.8984 18.9522 25.6889 24.9816 31.461 24.9816ZM31.461 4.11791C34.7595 4.11791 37.5462 8.09889 37.5462 12.8111C37.5462 17.5234 34.7595 21.5044 31.461 21.5044C28.1624 21.5044 25.3757 17.5234 25.3757 12.8111C25.3757 8.09889 28.1626 4.11791 31.461 4.11791Z" fill="#243138"/>
<path d="M57.5401 24.9816C63.3232 24.9816 67.1026 18.9392 67.1026 12.8111C67.1026 6.67007 63.3124 0.640625 57.5401 0.640625C51.757 0.640625 47.9775 6.68311 47.9775 12.8111C47.9775 18.9522 51.7678 24.9816 57.5401 24.9816ZM57.5401 4.11791C60.8386 4.11791 63.6253 8.09889 63.6253 12.8111C63.6253 17.5234 60.8386 21.5044 57.5401 21.5044C54.2415 21.5044 51.4548 17.5234 51.4548 12.8111C51.4548 8.09889 54.2415 4.11791 57.5401 4.11791Z" fill="#243138"/>
<path d="M16.3653 44.2153C21.3827 41.3209 21.6206 34.1923 18.5621 28.8943C15.4932 23.5756 9.19673 20.2479 4.19552 23.1354C-0.809168 26.0238 -1.06753 33.1445 1.99944 38.4564C5.06589 43.7676 11.3866 47.091 16.3653 44.2153ZM5.93399 26.1469C9.26854 24.2217 13.5885 27.2322 15.5504 30.6323C15.5504 30.6323 15.5504 30.6325 15.5506 30.6326C17.5075 34.0225 17.9682 39.2763 14.6269 41.2038C11.2916 43.1304 6.97127 40.1133 5.01077 36.7179C3.05254 33.3256 2.59631 28.0733 5.93399 26.1469Z" fill="#243138"/>
<path d="M72.6354 44.2148C77.6429 47.1073 83.9376 43.7645 87.0022 38.4565C90.0881 33.1119 89.7805 26.0064 84.8063 23.1356C79.7824 20.2354 73.4913 23.6052 70.4397 28.894C67.3633 34.2226 67.6415 41.334 72.6354 44.2148ZM73.4512 30.6321C75.4017 27.2515 79.7221 24.2149 83.0678 26.1469C86.4032 28.072 85.9513 33.3218 83.9908 36.7177C82.034 40.1069 77.7136 43.1325 74.3739 41.2031C71.0437 39.282 71.4844 34.0392 73.4512 30.6321Z" fill="#243138"/>
<path d="M73.5365 74.8806C74.4967 74.8806 75.2751 74.1022 75.2751 73.142C75.2751 72.1817 74.4967 71.4033 73.5365 71.4033C72.5763 71.4033 71.7979 72.1817 71.7979 73.142C71.7979 74.1022 72.5763 74.8806 73.5365 74.8806Z" fill="#243138"/>
<path d="M11.6789 67.4769C12.6759 74.7813 17.8247 80.6963 25.7169 82.082C30.7336 82.9618 35.5359 81.7075 39.3126 78.8594C42.3672 76.5564 46.634 76.5563 49.6888 78.8594C53.5787 81.7929 58.4072 82.9369 63.2847 82.082C65.2805 81.7317 67.1415 81.0877 68.8158 80.1678C69.6575 79.7055 69.9649 78.6484 69.5026 77.8069C69.0403 76.9652 67.9834 76.6578 67.1417 77.1201C65.8024 77.8557 64.3025 78.373 62.6836 78.6571C58.7659 79.3438 54.8941 78.43 51.7821 76.083C47.4952 72.8507 41.5062 72.8507 37.2189 76.083C34.1067 78.43 30.2353 79.3437 26.3178 78.6571C19.0633 77.3833 15.779 71.8035 15.1239 67.0064C14.2718 60.764 17.2028 55.069 22.5924 52.4976C25.0816 51.3075 27.0713 49.3717 28.1945 47.0466C31.7135 39.7622 37.8094 35.4133 44.5005 35.4133C51.1917 35.4133 57.2876 39.7622 60.8066 47.0466C61.9297 49.3717 63.9193 51.3075 66.4099 52.4981C71.3203 54.8415 74.2301 59.8484 74.0038 65.5654C73.9657 66.525 74.7128 67.3334 75.6723 67.3715C76.6291 67.4092 77.4405 66.6625 77.4784 65.7031C77.7608 58.5742 74.0935 52.3117 67.9088 49.3604C66.1291 48.5095 64.7187 47.1507 63.9377 45.534C60.1422 37.677 53.0411 31.936 44.5007 31.936C35.9551 31.936 28.8562 37.6831 25.0637 45.534C24.2827 47.1506 22.8723 48.5095 21.0939 49.3597C14.0357 52.7278 10.6829 60.1814 11.6789 67.4769Z" fill="#243138"/>
</svg>
