<svg width="79" height="79" viewBox="0 0 79 79" fill="none" xmlns="http://www.w3.org/2000/svg">
<g clip-path="url(#clip0)">
<path d="M79 14.5032C79 14.094 78.8373 13.7015 78.548 13.4122L65.588 0.452141C64.9853 -0.150388 64.0086 -0.150388 63.4058 0.452141L53.2108 10.6472C52.9753 10.1074 52.6385 9.60164 52.1975 9.16066C50.3049 7.26836 47.2261 7.26851 45.3336 9.16066L36.8323 17.662C34.1062 20.3881 33.1391 23.9101 32.2039 27.316C31.8428 28.6308 31.4983 29.8826 31.0632 31.0645C29.8714 31.5045 28.5981 31.8551 27.2932 32.2129C23.8981 33.1441 20.3874 34.1071 17.6617 36.8326L9.16041 45.3342C7.26812 47.2266 7.26812 50.3056 9.16041 52.1979C9.59476 52.6323 10.0985 52.9726 10.6464 53.2117L0.451897 63.4062C-0.150632 64.0087 -0.150632 64.9857 0.451897 65.5884L13.4119 78.5484C13.7012 78.8377 14.0937 79.0004 14.5029 79.0004C14.9121 79.0004 15.3047 78.8377 15.594 78.5484L25.2905 68.8518C26.8635 68.7368 28.2312 67.8699 29.0328 66.6088C29.7683 67.0579 30.6317 67.3169 31.5549 67.3169C33.2769 67.3169 34.7921 66.4156 35.6538 65.06C36.3893 65.5091 37.2529 65.768 38.1759 65.768C39.4686 65.768 40.6865 65.2622 41.6052 64.3437C42.1961 63.7526 42.6165 63.0377 42.8408 62.2585C43.4396 62.5233 44.1014 62.6704 44.7971 62.6704C47.4734 62.6704 49.6507 60.4931 49.6507 57.8168V49.1242H53.1557C55.832 49.1242 58.0093 46.9469 58.0093 44.2708C58.0093 43.6472 57.8911 43.051 57.676 42.5028C60.3271 42.4734 62.4746 40.3075 62.4746 37.6496C62.4746 37.0262 62.3564 36.43 62.1415 35.882H62.6838C65.3601 35.882 67.5372 33.7047 67.5372 31.0284C67.5372 30.3978 67.4163 29.7946 67.1964 29.2413C69.6684 29.0194 71.6124 26.9361 71.6124 24.4074C71.6124 23.8454 71.5153 23.3058 71.3388 22.8034L78.5482 15.5941C78.8375 15.3049 79 14.9125 79 14.5032ZM14.5029 75.2752L3.725 64.4972L16.0243 52.1979L20.0805 48.1418V64.0121C20.0805 65.5617 20.8114 66.9431 21.9456 67.8324L14.5029 75.2752ZM53.1557 46.0382H49.1111C48.6427 46.0382 48.1998 45.8534 47.8642 45.5178C47.5285 45.182 47.3436 44.7392 47.3436 44.2706C47.3436 43.2961 48.1366 42.5031 49.1111 42.5031H51.5495H52.5138H53.1557C54.1302 42.5031 54.9233 43.2961 54.9233 44.2708C54.9233 45.2455 54.1304 46.0382 53.1557 46.0382ZM57.6212 39.4172H52.5138H51.5499C50.5757 39.4169 49.7829 38.624 49.7829 37.6496C49.7829 37.1811 49.9678 36.7383 50.3035 36.4025C50.6391 36.0668 51.0819 35.882 51.5504 35.882H55.0241H57.6212C58.5957 35.882 59.3887 36.6749 59.3887 37.6496C59.3887 38.6243 58.5957 39.4172 57.6212 39.4172ZM62.6837 32.7962H57.621H55.0244C54.0502 32.7959 53.2575 32.0029 53.2574 31.0285C53.2574 30.5601 53.4422 30.1173 53.778 29.7815C54.1137 29.4459 54.5566 29.2609 55.025 29.2609H60.6868H62.6835C63.6581 29.2609 64.451 30.0538 64.451 31.0284C64.451 32.0029 63.6584 32.7962 62.6837 32.7962ZM66.7588 26.1751H62.6837H60.6874C59.7133 26.1748 58.9207 25.3817 58.9205 24.4075C58.9205 23.9391 59.1054 23.4962 59.4411 23.1605C59.7767 22.8247 60.2197 22.6399 60.6882 22.6399H66.7588C67.7334 22.6399 68.5263 23.4328 68.5263 24.4075C68.5263 25.3822 67.7335 26.1751 66.7588 26.1751ZM69.4238 20.3541C68.6584 19.8491 67.7426 19.5541 66.7588 19.5541H60.6882C60.6882 19.5541 60.6882 19.5541 60.688 19.5541C59.3953 19.5541 58.1774 20.0599 57.2589 20.9784C56.3404 21.8969 55.8346 23.1148 55.8346 24.4078C55.8346 25.031 55.9528 25.6272 56.1679 26.1751H55.025C55.025 26.1751 55.025 26.1751 55.0249 26.1751C53.7322 26.1751 52.5144 26.6809 51.5959 27.5994C50.6772 28.518 50.1714 29.7358 50.1714 31.0287C50.1714 31.6914 50.3052 32.3239 50.547 32.9C49.636 33.0918 48.7976 33.5443 48.1213 34.2205C47.2028 35.139 46.697 36.3569 46.697 37.6496C46.697 38.4243 46.8795 39.1572 47.2037 39.8077C45.4729 40.5502 44.2577 42.2711 44.2577 44.2706C44.2577 45.5633 44.7635 46.7812 45.682 47.6997C45.952 47.9699 46.2486 48.2032 46.5648 48.3996V57.8168C46.5648 58.7913 45.7717 59.5844 44.7971 59.5844C43.8226 59.5844 43.0295 58.7915 43.0295 57.8168V55.0364C43.0295 54.1842 42.3386 53.4934 41.4865 53.4934C40.6345 53.4934 39.9436 54.1842 39.9436 55.0364V57.8168V60.9146C39.9436 61.3831 39.7589 61.8257 39.4231 62.1615C39.0875 62.4971 38.6445 62.6821 38.1759 62.6821C37.2014 62.6821 36.4085 61.8891 36.4083 60.9146V58.1343C36.4083 57.2822 35.7175 56.5914 34.8653 56.5914C34.0132 56.5914 33.3224 57.2822 33.3224 58.1343V60.9148V62.4634C33.3224 63.438 32.5294 64.2309 31.5549 64.2309C30.5804 64.2309 29.7873 63.438 29.7873 62.4634V59.683C29.7873 58.8308 29.0965 58.14 28.2443 58.14C27.3921 58.14 26.7013 58.8308 26.7013 59.683V62.4634V64.0123C26.7013 64.9868 25.9084 65.7799 24.9337 65.7799C23.9592 65.7799 23.1661 64.987 23.1661 64.0123V44.4169C23.1661 43.7929 22.7901 43.2302 22.2136 42.9913C21.6373 42.7526 20.9734 42.8844 20.5321 43.3257L13.8427 50.0151C13.8424 50.0154 13.8422 50.0155 13.8419 50.0159L13.8412 50.0166C13.5099 50.3474 13.0664 50.5295 12.5921 50.5295C12.1175 50.5295 11.6736 50.3471 11.3423 50.0157C10.6532 49.3266 10.6532 48.2053 11.3423 47.5161L19.8438 39.0146C21.9914 36.8668 24.9632 36.0518 28.1093 35.1888C31.4447 34.274 34.8939 33.328 37.5294 30.6923L39.9732 28.2484C40.5757 27.6459 40.5757 26.6689 39.9732 26.0664C39.3708 25.4638 38.3937 25.4638 37.7911 26.0664L35.3474 28.5101C35.2281 28.6294 35.1053 28.7436 34.9803 28.8547C35.0473 28.6132 35.1138 28.3723 35.1795 28.1329C36.0466 24.9752 36.8657 21.9925 39.0144 19.8439L47.5157 11.3426C48.2048 10.6536 49.3262 10.6533 50.0153 11.3426C50.3466 11.6738 50.5291 12.1176 50.5291 12.5924C50.5291 13.067 50.3466 13.5109 50.0153 13.8422L47.6106 16.2469C47.008 16.8494 47.008 17.8264 47.6106 18.4291C48.2133 19.0316 49.19 19.0316 49.7928 18.4291L52.1974 16.0246C52.1974 16.0246 52.1975 16.0246 52.1975 16.0244C52.1975 16.0244 52.1977 16.0242 52.1977 16.0241L64.4967 3.72493L75.2746 14.5029L69.4238 20.3541Z" fill="#243138"/>
<path d="M43.792 20.7046C42.94 20.7046 42.249 21.396 42.249 22.2482C42.249 23.1004 42.94 23.7911 43.792 23.7911C44.644 23.7911 45.335 23.1004 45.335 22.2482V22.2469C45.335 21.3948 44.644 20.7046 43.792 20.7046Z" fill="#243138"/>
</g>
<defs>
<clipPath id="clip0">
<rect width="79" height="79" fill="white"/>
</clipPath>
</defs>
</svg>
