<svg width="75" height="94" viewBox="0 0 75 94" fill="none" xmlns="http://www.w3.org/2000/svg">
<path d="M74.9545 50.9874C74.9545 44.301 73.2602 37.5375 70.0478 31.3727C72.7512 22.8367 74.6931 13.5725 71.5021 3.54409C70.9423 1.78461 69.4713 0.465782 67.6627 0.102598C65.8665 -0.257473 64.0836 0.342385 62.8744 1.71065L51.6859 12.6379L51.5617 12.7711C51.3949 12.9674 51.1203 13.0282 50.8784 12.9233C46.7331 11.1227 42.3897 10.2099 37.9688 10.2099C33.3194 10.2099 28.7241 11.2155 24.3102 13.199C24.0704 13.3063 23.7958 13.2458 23.6271 13.0474L23.5556 12.9633L11.7253 1.84612C10.5166 0.489138 8.74193 -0.105659 6.95228 0.254217C5.14298 0.617985 3.67097 1.93799 3.11082 3.69902C0.188015 12.8865 1.63375 21.2676 4.99895 31.6715C1.726 37.7858 0 44.4458 0 50.9874C0 57.5557 4.27005 63.7171 12.4184 69.0024C8.75673 74.5257 6.59591 81.3016 6.59591 88.6173C6.59591 89.4832 6.62686 90.361 6.68797 91.226C6.76466 92.311 7.70726 93.1283 8.79117 93.0516C9.87606 92.9749 10.6933 92.0331 10.6168 90.9482C10.5621 90.1753 10.5345 89.391 10.5345 88.6173C10.5345 82.0344 12.4939 75.9475 15.8017 71.0209C16.2838 71.287 16.7727 71.5511 17.2762 71.8119C19.8959 73.1689 22.5683 74.3283 25.0923 75.2875C23.8828 78.9976 23.2358 83.2246 23.2358 87.6233C23.2358 88.808 23.2843 90.0056 23.3799 91.1826C23.4326 91.833 24.0025 92.3161 24.6534 92.2647C25.3038 92.2118 25.7883 91.6419 25.7353 90.9914C25.6448 89.8778 25.5989 88.7446 25.5989 87.6233C25.5989 83.4961 26.1962 79.5464 27.3128 76.0942C32.1496 77.7712 36.1472 78.6344 37.677 78.6344C39.1681 78.6344 43.0068 77.8055 47.6714 76.1919C48.7682 79.6208 49.3554 83.5347 49.3554 87.6233C49.3554 88.7458 49.3096 89.8789 49.2189 90.9912C49.166 91.6417 49.6504 92.2118 50.3009 92.2647C50.3336 92.2674 50.3659 92.2686 50.398 92.2686C51.007 92.2686 51.5242 91.8007 51.5744 91.1828C51.6699 90.007 51.7184 88.8094 51.7184 87.6233C51.7184 83.2622 51.0798 79.0729 49.8896 75.3867C52.4656 74.4081 55.2055 73.2131 57.8865 71.8075C58.3346 71.5723 58.7711 71.3347 59.2022 71.0955C62.4799 76.0084 64.4196 82.0673 64.4196 88.6171C64.4196 89.3912 64.3919 90.1755 64.3372 90.9478C64.2604 92.0327 65.0776 92.9745 66.1625 93.0512C66.2098 93.0547 66.2567 93.0563 66.3034 93.0563C67.328 93.0563 68.1925 92.2636 68.2659 91.226C68.3272 90.3614 68.3582 89.4838 68.3582 88.6171C68.3582 81.3299 66.2137 74.579 62.5779 69.0672C70.6974 63.7678 74.9545 57.5827 74.9545 50.9874ZM56.0581 68.3191C48.0325 72.5262 39.5363 74.6958 37.6772 74.6958C35.8021 74.6958 27.2161 72.5247 19.0876 68.3148C12.1768 64.7351 3.93878 58.8235 3.93878 50.9876C3.93878 44.8454 5.63812 38.5677 8.85346 32.8336L9.27737 32.0776L9.00605 31.2544C5.69924 21.2177 4.18733 13.3073 6.86412 4.8929C7.04921 4.31095 7.53015 4.15563 7.72829 4.11573C7.78376 4.10464 7.86394 4.09296 7.95892 4.09296C8.19677 4.09296 8.52842 4.16458 8.80519 4.49001L8.87662 4.5739L20.7095 15.6933C22.0126 17.1409 24.1382 17.5942 25.9245 16.7912C29.8275 15.0375 33.8797 14.1483 37.9688 14.1483C41.8464 14.1483 45.662 14.9515 49.3096 16.5358C51.1221 17.3225 53.1916 16.8655 54.4943 15.4007L65.6845 4.47191L65.8087 4.33859C66.1964 3.88295 66.6919 3.92499 66.8867 3.96392C67.0847 4.00343 67.5642 4.15855 67.7488 4.73817C70.7027 14.022 68.6756 22.8266 66.0446 30.9583L65.7839 31.7641L66.1896 32.5076C69.3469 38.2948 71.0157 44.685 71.0157 50.987C71.0157 58.8317 62.8818 64.7423 56.0581 68.3191Z" fill="#243138"/>
<path d="M53.7027 39.4674C56.2251 39.4674 58.2773 41.5196 58.2773 44.042C58.2773 44.6946 57.7483 45.2236 57.0957 45.2236C56.4431 45.2236 55.9141 44.6946 55.9141 44.042C55.9141 42.8224 54.9221 41.8306 53.7027 41.8306C52.4831 41.8306 51.4911 42.8226 51.4911 44.042C51.4911 44.6946 50.9621 45.2236 50.3095 45.2236C49.6569 45.2236 49.1279 44.6946 49.1279 44.042C49.128 41.5196 51.1803 39.4674 53.7027 39.4674Z" fill="#243138"/>
<path d="M21.2525 39.4674C23.7749 39.4674 25.8271 41.5196 25.8271 44.042C25.8271 44.6946 25.2981 45.2236 24.6455 45.2236C23.9929 45.2236 23.4639 44.6946 23.4639 44.042C23.4639 42.8224 22.4719 41.8306 21.2525 41.8306C20.0329 41.8306 19.0409 42.8226 19.0409 44.042C19.0409 44.6946 18.5119 45.2236 17.8593 45.2236C17.2067 45.2236 16.6777 44.6946 16.6777 44.042C16.6777 41.5196 18.7299 39.4674 21.2525 39.4674Z" fill="#243138"/>
<path d="M42.8309 54.0571C40.9611 54.0571 39.3789 52.8093 38.8686 51.1034C39.8844 50.4716 41.0193 49.3778 41.0193 48.1331C41.0193 46.1768 39.4334 45.6108 37.477 45.6108C35.5205 45.6108 33.9347 46.1768 33.9347 48.1331C33.9347 49.3778 35.0696 50.4716 36.0854 51.1034C35.575 52.8095 33.9929 54.0571 32.123 54.0571C31.4704 54.0571 30.9414 54.5861 30.9414 55.2387C30.9414 55.8913 31.4704 56.4204 32.123 56.4204C34.3418 56.4204 36.3035 55.3022 37.4768 53.6005C38.6502 55.3022 40.6119 56.4204 42.8305 56.4204C43.4832 56.4204 44.0122 55.8913 44.0122 55.2387C44.0126 54.5863 43.4833 54.0571 42.8309 54.0571Z" fill="#243138"/>
<path d="M11.4425 24.0857C10.8566 24.0857 10.3485 23.6505 10.272 23.0541C10.1891 22.4068 10.6464 21.8149 11.2938 21.732L13.3598 21.4671C11.4491 18.5454 10.0684 14.5342 9.99812 14.3285C9.78753 13.7109 10.1174 13.0399 10.7348 12.8291C11.3524 12.6189 12.0237 12.948 12.2346 13.5654C12.2539 13.6222 14.1932 19.2514 16.405 21.5597C16.7137 21.8818 16.8147 22.3503 16.666 22.7709C16.5175 23.1915 16.1446 23.4924 15.7022 23.5492L11.5941 24.0759C11.5431 24.0825 11.4923 24.0857 11.4425 24.0857Z" fill="#243138"/>
<path d="M63.512 24.0858C63.4618 24.0858 63.4112 24.0825 63.3602 24.0761L59.2521 23.5494C58.8095 23.4926 58.4368 23.1917 58.2883 22.7711C58.1396 22.3505 58.2406 21.882 58.5493 21.5599C60.7613 19.2517 62.7002 13.6223 62.7195 13.5657C62.9303 12.9481 63.6019 12.6186 64.2193 12.8292C64.8369 13.04 65.1666 13.7111 64.956 14.3287C64.8859 14.5342 63.5054 18.5454 61.5945 21.4672L63.6605 21.7321C64.3079 21.815 64.7655 22.4069 64.6823 23.0543C64.6062 23.6506 64.0977 24.0858 63.512 24.0858Z" fill="#243138"/>
<path d="M34.883 27.7986C33.9771 27.7986 33.1618 27.1699 32.9608 26.2487C32.7288 25.1862 33.4024 24.1368 34.4649 23.9048C35.9221 23.5869 37.5037 23.4034 39.1653 23.3596C40.2554 23.3215 41.1573 24.1889 41.1859 25.2762C41.2148 26.3636 40.3566 27.2682 39.2696 27.2968C37.8544 27.3344 36.5206 27.4878 35.3045 27.7533C35.1634 27.7838 35.0221 27.7986 34.883 27.7986Z" fill="#243138"/>
<path d="M28.533 30.3935C27.8611 30.3935 27.2063 30.0492 26.8381 29.4298C26.2826 28.4948 26.5901 27.2863 27.5253 26.7309C27.9368 26.4864 28.3477 26.2548 28.7469 26.0426C29.7074 25.5323 30.8995 25.8972 31.41 26.8578C31.9203 27.8183 31.5554 29.0106 30.5949 29.5209C30.2508 29.7039 29.8948 29.9042 29.5371 30.1167C29.2218 30.3043 28.8751 30.3935 28.533 30.3935Z" fill="#243138"/>
</svg>
