<svg width="80" height="80" viewBox="0 0 80 80" fill="none" xmlns="http://www.w3.org/2000/svg">
<path d="M48.7063 16.3428V1.5625C48.7063 0.699531 48.0066 0 47.1438 0H32.7589C31.8961 0 31.1964 0.699531 31.1964 1.5625V16.3892C24.4199 19.6714 19.7354 26.6186 19.7354 34.6397V78.4375C19.7354 79.3005 20.435 80 21.2979 80H58.7024C59.5652 80 60.2649 79.3005 60.2649 78.4375V34.6397C60.265 26.5803 55.5354 19.6053 48.7063 16.3428ZM34.3214 3.125H45.5813V5H34.3214V3.125ZM34.3214 8.125H45.5813V15.1569C43.8075 14.6481 41.9354 14.375 40.0002 14.375C38.0296 14.375 36.1241 14.6589 34.3214 15.1859V8.125ZM57.14 76.875H22.8607V34.6397C22.8607 25.1887 30.5496 17.5 40.0002 17.5C49.4508 17.5 57.1399 25.1887 57.1399 34.6397V76.875H57.14Z" fill="#243138"/>
<path d="M49.541 58.1641H30.3613C29.4985 58.1641 28.7988 58.8636 28.7988 59.7266C28.7988 60.5895 29.4985 61.2891 30.3613 61.2891H49.541C50.4038 61.2891 51.1035 60.5895 51.1035 59.7266C51.1035 58.8636 50.404 58.1641 49.541 58.1641Z" fill="#243138"/>
<path d="M49.541 64.4531H30.3613C29.4985 64.4531 28.7988 65.1527 28.7988 66.0156C28.7988 66.8786 29.4985 67.5781 30.3613 67.5781H49.541C50.4038 67.5781 51.1035 66.8786 51.1035 66.0156C51.1035 65.1527 50.404 64.4531 49.541 64.4531Z" fill="#243138"/>
<path d="M51.0353 40.8066C50.1725 40.8066 49.4728 41.5061 49.4728 42.3691C49.4728 47.6106 45.2084 51.875 39.9669 51.875C34.7252 51.875 30.4608 47.6106 30.4608 42.3691C30.4608 37.1275 34.7252 32.8631 39.9669 32.8631C41.1566 32.8631 42.3164 33.0797 43.4137 33.5069C44.2186 33.8198 45.1236 33.4217 45.4367 32.6177C45.7497 31.8136 45.3516 30.9078 44.5475 30.5948C43.0872 30.0264 41.5461 29.7383 39.967 29.7383C33.0023 29.7383 27.3359 35.4045 27.3359 42.3692C27.3359 49.3339 33.0022 55 39.9669 55C46.9316 55 52.5978 49.3337 52.5978 42.3691C52.5978 41.5061 51.8983 40.8066 51.0353 40.8066Z" fill="#243138"/>
<path d="M50.702 35.8327C50.6832 35.7327 50.652 35.6343 50.6129 35.5405C50.5739 35.4452 50.5254 35.3546 50.4692 35.2702C50.4131 35.1843 50.3475 35.1046 50.2754 35.0327C50.2036 34.9608 50.1239 34.8952 50.0379 34.839C49.9536 34.7827 49.8629 34.7343 49.7676 34.6952C49.6739 34.6562 49.5756 34.6265 49.4756 34.6062C49.274 34.5655 49.0662 34.5655 48.8662 34.6062C48.7662 34.6265 48.6678 34.6562 48.5725 34.6952C48.4786 34.7343 48.3881 34.7827 48.3037 34.839C48.2176 34.8952 48.1379 34.9608 48.0661 35.0327C47.9942 35.1046 47.9286 35.1843 47.8723 35.2702C47.8145 35.3546 47.7676 35.4452 47.7286 35.5405C47.6895 35.6343 47.6582 35.7327 47.6396 35.8327C47.6192 35.9327 47.6084 36.0358 47.6084 36.1374C47.6084 36.239 47.6192 36.3421 47.6396 36.4437C47.6582 36.5421 47.6895 36.6405 47.7286 36.7358C47.7676 36.8296 47.8145 36.9202 47.8723 37.0046C47.9286 37.0905 47.9942 37.1702 48.0661 37.2421C48.1379 37.314 48.2176 37.3796 48.3037 37.4374C48.3881 37.4937 48.4786 37.5421 48.5725 37.5812C48.6678 37.6202 48.7662 37.6499 48.8662 37.6702C48.9662 37.6905 49.0693 37.6999 49.1709 37.6999C49.2723 37.6999 49.3756 37.6905 49.4756 37.6702C49.5756 37.6499 49.674 37.6202 49.7676 37.5812C49.8629 37.5421 49.9536 37.4937 50.0379 37.4374C50.1239 37.3796 50.2036 37.314 50.2754 37.2421C50.3475 37.1702 50.4131 37.0905 50.4692 37.0046C50.5254 36.9202 50.5739 36.8296 50.6129 36.7358C50.652 36.6405 50.6832 36.5421 50.702 36.4437C50.7223 36.3421 50.7332 36.239 50.7332 36.1374C50.7332 36.0358 50.7223 35.9327 50.702 35.8327Z" fill="#243138"/>
</svg>
