<svg width="94" height="94" viewBox="0 0 94 94" fill="none" xmlns="http://www.w3.org/2000/svg">
<path d="M81.9236 42.3974C81.3791 41.8529 80.8043 41.338 80.2091 40.8507C83.9824 36.6382 86.0669 31.1805 86.0625 25.5251V20.4372C86.0625 20.0228 85.8978 19.6254 85.6048 19.3324C85.3118 19.0394 84.9144 18.8747 84.5 18.8747H75.125V9.49975C75.125 9.08535 74.9603 8.68792 74.6673 8.39489C74.3743 8.10187 73.9769 7.93725 73.5625 7.93725H68.4746C66.597 7.93745 64.7265 8.16661 62.9044 8.61967C61.934 7.01201 60.7719 5.52816 59.4437 4.20072L55.9314 0.596817C55.7873 0.448905 55.6153 0.331026 55.4253 0.249998C55.2354 0.16897 55.0313 0.126399 54.8248 0.124747C54.6181 0.121118 54.4128 0.159535 54.2214 0.237664C54.0301 0.315792 53.8566 0.432003 53.7115 0.579239L42.2982 11.9269C41.7431 12.482 41.2164 13.0647 40.7201 13.673C36.5241 9.97214 31.1202 7.93229 25.5253 7.93725H20.4375C20.0231 7.93725 19.6256 8.10187 19.3326 8.39489C19.0396 8.68792 18.875 9.08535 18.875 9.49975V18.8747H9.49996C9.08556 18.8747 8.68813 19.0394 8.39511 19.3324C8.10208 19.6254 7.93746 20.0228 7.93746 20.4372V25.5251C7.9378 27.3327 8.15019 29.134 8.57027 30.8921C6.93513 31.8734 5.42704 33.0522 4.08004 34.4021L0.582577 37.8982C0.289593 38.1912 0.125 38.5886 0.125 39.003C0.125 39.4173 0.289593 39.8147 0.582577 40.1078L12.0765 51.6017C12.6211 52.1464 13.1959 52.6611 13.7908 53.1484C10.0174 57.361 7.93294 62.8189 7.93746 68.4744V73.5622C7.93746 73.9767 8.10208 74.3741 8.39511 74.6671C8.68813 74.9601 9.08556 75.1247 9.49996 75.1247H18.875V84.4997C18.875 84.9142 19.0396 85.3116 19.3326 85.6046C19.6256 85.8976 20.0231 86.0622 20.4375 86.0622H25.5253C27.4029 86.062 29.2734 85.8329 31.0955 85.3798C32.0659 86.9875 33.228 88.4713 34.5562 89.7988L38.0685 93.4027C38.2126 93.5506 38.3846 93.6685 38.5746 93.7495C38.7645 93.8305 38.9687 93.8731 39.1752 93.8747H39.1875C39.6003 93.8748 39.9964 93.7114 40.2892 93.4203L51.7025 82.0726C52.2566 81.5165 52.7822 80.9328 53.2773 80.3236C57.4735 84.0261 62.8784 86.0671 68.4746 86.0622H73.5625C73.9769 86.0622 74.3743 85.8976 74.6673 85.6046C74.9603 85.3116 75.125 84.9142 75.125 84.4997V75.1247H84.5C84.9144 75.1247 85.3118 74.9601 85.6048 74.6671C85.8978 74.3741 86.0625 73.9767 86.0625 73.5622V68.4744C86.0621 66.6668 85.8497 64.8656 85.4296 63.1076C87.0648 62.1266 88.5729 60.948 89.9199 59.5984L93.4173 56.1013C93.7103 55.8083 93.8749 55.4109 93.8749 54.9965C93.8749 54.5822 93.7103 54.1848 93.4173 53.8917L81.9236 42.3974ZM82.9375 25.5251C82.9315 30.8043 80.8317 35.8656 77.0988 39.5986C73.3658 43.3315 68.3045 45.4313 63.0253 45.4373H59.3988C59.1199 43.2144 58.2456 41.1081 56.8683 39.3412L59.4365 36.7728C63.3646 32.8669 65.7413 27.6679 66.125 22.1417C66.9047 22.0488 67.6893 22.0014 68.4746 21.9997H82.9375V25.5251ZM47 56.3747C45.1458 56.3747 43.3332 55.8249 41.7915 54.7948C40.2498 53.7646 39.0482 52.3005 38.3386 50.5874C37.629 48.8743 37.4434 46.9893 37.8051 45.1708C38.1668 43.3522 39.0597 41.6817 40.3708 40.3706C41.6819 39.0595 43.3524 38.1666 45.171 37.8049C46.9896 37.4431 48.8746 37.6288 50.5876 38.3384C52.3007 39.048 53.7649 40.2496 54.795 41.7913C55.8251 43.333 56.375 45.1455 56.375 46.9998C56.3721 49.4853 55.3835 51.8682 53.6259 53.6257C51.8684 55.3833 49.4855 56.3719 47 56.3747ZM68.4746 11.0622H72V18.8747H68.4746C67.6933 18.8752 66.9126 18.915 66.1353 18.9939C65.9742 16.4106 65.3766 13.8732 64.3677 11.4896C65.7183 11.2058 67.0946 11.0626 68.4746 11.0622ZM54.7951 3.90815L57.2127 6.38861C57.2173 6.3933 57.222 6.39818 57.2269 6.40287C60.9556 10.1401 63.0497 15.2037 63.0497 20.4829C63.0497 25.762 60.9556 30.8257 57.2269 34.5628L54.6587 37.131C52.8916 35.7539 50.7854 34.8798 48.5625 34.6009V30.9744C48.5674 25.4373 46.5695 20.0853 42.9375 15.906C43.4247 15.2875 43.9479 14.6981 44.5043 14.141L54.7951 3.90815ZM22 11.0622H25.5253C30.8045 11.0682 35.8658 13.168 39.5988 16.9009C43.3317 20.6339 45.4315 25.6952 45.4375 30.9744V34.6009C42.9094 34.9237 40.5399 36.0098 38.6453 37.7143C36.7507 39.4189 35.421 41.6608 34.8337 44.1408C31.0653 42.6961 27.8225 40.1447 25.5318 36.8219C23.2411 33.4992 22.0098 29.5609 22 25.5251V11.0622ZM11.0625 25.5251V21.9997H18.875V25.5251C18.875 26.2574 18.914 26.9826 18.9826 27.7011C16.3912 27.8467 13.8436 28.4334 11.4496 29.4359C11.1927 28.1481 11.063 26.8383 11.0625 25.5251ZM3.89703 39.0035L6.2898 36.6107C9.7994 33.0747 14.5188 31.0004 19.497 30.8058C20.2231 33.852 21.5585 36.7196 23.4227 39.2358C25.2869 41.752 27.6414 43.8646 30.3441 45.4462C25.0867 45.5859 20.0369 47.5283 16.0412 50.948C15.4265 50.4639 14.8405 49.9445 14.2861 49.3923L3.89703 39.0035ZM11.0625 68.4744C11.0684 63.1952 13.1682 58.1339 16.9011 54.4009C20.6341 50.668 25.6954 48.5682 30.9746 48.5623H34.6011C34.88 50.7851 35.7543 52.8914 37.1316 54.6583L34.5634 57.2267C30.6354 61.1325 28.2587 66.3315 27.875 71.8576C27.0952 71.9507 26.3107 71.9982 25.5253 71.9997H11.0625V68.4744ZM25.5253 82.9372H22V75.1247H25.5253C26.3066 75.1243 27.0873 75.0845 27.8646 75.0056C28.0257 77.5889 28.6234 80.1263 29.6322 82.5099C28.2816 82.7937 26.9054 82.9369 25.5253 82.9372ZM39.2048 90.0914L36.7873 87.6109C36.7826 87.6062 36.7779 87.6013 36.773 87.5966C33.0388 83.8624 30.941 78.7976 30.941 73.5166C30.941 68.2356 33.0388 63.1709 36.773 59.4367L39.3412 56.8685C41.1083 58.2456 43.2146 59.1197 45.4375 59.3986V63.0251C45.4325 68.5613 47.4298 73.9125 51.0609 78.0915C50.5742 78.7108 50.0517 79.301 49.4961 79.8591L39.2048 90.0914ZM72 82.9372H68.4746C63.1954 82.9313 58.1341 80.8315 54.4011 77.0986C50.6682 73.3656 48.5684 68.3043 48.5625 63.0251V59.3986C51.0905 59.0758 53.46 57.9897 55.3546 56.2852C57.2493 54.5806 58.5789 52.3387 59.1662 49.8587C62.9345 51.3034 66.1774 53.8549 68.4681 57.1776C70.7588 60.5003 71.9901 64.4386 72 68.4744V82.9372ZM82.9375 68.4744V71.9997H75.125V68.4744C75.125 67.7417 75.0859 67.0162 75.0173 66.2972C77.6087 66.152 80.1563 65.5657 82.5505 64.5636C82.8073 65.8514 82.9369 67.1613 82.9375 68.4744ZM87.7101 57.3888C84.2 60.9241 79.4809 62.9983 74.5029 63.1937C73.7768 60.1475 72.4414 57.2799 70.5772 54.7637C68.713 52.2476 66.3585 50.135 63.6558 48.5533C68.9133 48.4136 73.963 46.4712 77.9587 43.0515C78.5735 43.5356 79.1595 44.055 79.7138 44.6072L90.1029 54.996L87.7101 57.3888Z" fill="#243138"/>
</svg>
