<svg width="83" height="83" viewBox="0 0 83 83" fill="none" xmlns="http://www.w3.org/2000/svg">
<g clip-path="url(#clip0)">
<path d="M76.1759 52.5948C74.7026 49.6551 71.5413 45.7379 68.9783 43.6759L65.0547 40.5201C63.8336 37.5161 62.1234 34.3866 60.0938 31.4355L63.0078 29.7919C66.1114 28.041 69.0812 23.952 69.7693 20.4829L70.8149 15.2085C71.0321 14.1116 70.3186 13.0457 69.2216 12.8279C68.1248 12.6112 67.0587 13.3236 66.8411 14.4212L65.7959 19.6949C65.3352 22.0184 63.1024 25.0874 61.0178 26.2634L57.6494 28.1641C56.9208 27.2653 56.1664 26.3961 55.3907 25.5694C54.1726 24.2719 52.9419 23.1085 51.7071 22.0823L54.2937 20.623C56.0984 19.6047 57.2623 17.9668 57.486 16.1292C57.7097 14.291 56.9731 12.4218 55.4658 11.0002L50.7657 6.56881C49.9519 5.80147 48.6704 5.83943 47.9024 6.65285C47.1357 7.46707 47.1732 8.7487 47.987 9.51604L52.6866 13.9476C53.256 14.4841 53.5322 15.085 53.4646 15.6394C53.3975 16.1932 52.985 16.7106 52.3034 17.0951L48.0847 19.4747C45.1717 17.6968 42.2795 16.7048 39.5145 16.5464L41.868 10.9163C42.2992 9.88461 41.8122 8.6979 40.78 8.26681C39.7483 7.8356 38.5621 8.32245 38.1304 9.35427L35.6126 15.3788L30.7716 10.9967C29.9427 10.2462 28.6615 10.31 27.9111 11.139C27.1606 11.968 27.2244 13.2491 28.0534 13.9995L32.5769 18.0948C30.1421 19.4137 27.9462 21.5413 26.0655 24.3886L21.2354 24.0285C20.455 23.9703 19.8617 23.678 19.565 23.2054C19.2686 22.7322 19.2631 22.0709 19.5503 21.3431L21.9198 15.3344C22.33 14.2934 21.8189 13.1174 20.7784 12.7071C19.7378 12.2968 18.5613 12.8074 18.1511 13.8485L15.7816 19.8572C15.0219 21.7853 15.15 23.7903 16.1339 25.3584C17.1178 26.9265 18.8677 27.9146 20.934 28.0684L23.8957 28.2894C23.2145 29.7433 22.5951 31.3196 22.0445 33.0124C21.6939 34.0904 21.3805 35.1974 21.1038 36.3206L17.2464 36.0331C14.8596 35.8552 11.5337 34.0261 10.1288 32.1191L6.94044 27.7902C6.27691 26.8899 5.00943 26.6977 4.10848 27.3609C3.20804 28.0239 3.01549 29.292 3.67852 30.1924L6.86751 34.5217C8.96548 37.3695 13.3919 39.8073 16.9449 40.0725L20.282 40.3215C19.7001 43.855 19.4818 47.4148 19.6543 50.6523L17.4449 55.1775C16.0019 58.1336 14.8063 63.0237 14.7232 66.3102L14.4067 78.7716C14.3781 79.8902 15.2616 80.8198 16.3801 80.8479C16.5501 80.8521 16.715 80.8353 16.8741 80.7998C17.7595 80.6022 18.4318 79.8225 18.4559 78.8747L18.7722 66.4128C18.8354 63.9284 19.7377 60.063 20.8048 57.5702C24.4103 69.2573 36.4922 76.4208 48.6316 73.7114C60.7706 71.0021 68.6606 59.3812 66.9547 47.2701C68.9809 49.0725 71.4411 52.1875 72.5542 54.4093L78.1392 65.5541C78.5642 66.4023 79.504 66.8216 80.3895 66.624C80.5485 66.5885 80.7054 66.5335 80.857 66.4575C81.8573 65.9559 82.2618 64.7394 81.7603 63.7392L76.1759 52.5948ZM30.859 28.3306C32.2459 24.0673 34.418 21.3149 36.8179 20.7793C39.2178 20.2437 42.3541 21.8113 45.4221 25.0803C48.305 28.1523 50.6344 32.2281 51.3566 35.464C52.6767 41.3788 48.9386 47.265 43.0238 48.5851C37.109 49.9052 31.2228 46.167 29.9027 40.2522C29.1805 37.0163 29.5558 32.3368 30.859 28.3306ZM47.7493 69.7579C37.1644 72.1203 26.6313 65.431 24.2689 54.8461C24.0059 53.6678 23.827 52.3794 23.7284 51.0174C23.7264 50.953 23.7219 50.8891 23.7142 50.8254C23.4705 47.1769 23.7997 43.0075 24.6512 38.9578C24.6555 38.9385 24.6591 38.9182 24.6637 38.8977C24.9082 37.7413 25.1955 36.5952 25.5239 35.4735C25.4434 37.5267 25.5795 39.478 25.9492 41.1346C27.7559 49.2295 35.8113 54.3452 43.9062 52.5386C52.001 50.7319 57.1168 42.6765 55.3101 34.5816C54.9404 32.9251 54.2339 31.101 53.2881 29.2774C54.0629 30.1535 54.8111 31.0695 55.5248 32.0132C55.5363 32.0285 55.5474 32.0444 55.5595 32.0595C58.0499 35.3606 60.1195 38.9919 61.4509 42.3955C61.4718 42.46 61.4962 42.5232 61.5235 42.5852C62.0128 43.8595 62.3983 45.1002 62.6612 46.278C65.0234 56.8624 58.3341 67.3955 47.7493 69.7579Z" fill="#243138"/>
</g>
<defs>
<clipPath id="clip0">
<rect width="69.1331" height="69.1331" fill="white" transform="translate(0.174805 15.2881) rotate(-12.5815)"/>
</clipPath>
</defs>
</svg>
