<svg width="102" height="102" viewBox="0 0 102 102" fill="none" xmlns="http://www.w3.org/2000/svg">
<path d="M54.9785 75.8677C55.2032 75.5115 55.2722 75.0793 55.1714 74.6714L37.7143 9.52064C37.617 9.14157 37.3676 8.81883 37.0244 8.62961C36.6805 8.44056 36.2748 8.40125 35.9021 8.52236L13.0758 14.6386C12.2596 14.8573 11.7514 15.604 11.9698 16.4189L29.4269 81.5697C29.5152 81.9759 29.7718 82.3258 30.1308 82.5341L38.6028 87.1154L39.4118 90.1348L38.6115 90.3492C38.1376 90.4571 37.7466 90.7928 37.5673 91.2445C37.3882 91.697 37.4436 92.2077 37.7152 92.6109L41.9901 99.0512C42.3554 99.5873 43.028 99.8214 43.6469 99.6308L52.0641 97.3754C52.6973 97.227 53.1601 96.6836 53.2066 96.0351L53.68 88.2885C53.7139 87.8148 53.509 87.354 53.1338 87.0615C52.7508 86.766 52.2471 86.6758 51.7848 86.8195L50.8068 87.0815L49.9892 84.0304L54.9785 75.8677ZM35.1809 11.8817L35.9159 14.6248L16.0793 19.94L15.3443 17.1969L35.1809 11.8817ZM16.871 22.8947L36.7076 17.5795L52.0478 74.8298L47.4323 82.5581L40.2172 84.4914L32.2093 80.1378L16.871 22.8947ZM50.2085 94.7058L43.9199 96.3908L41.4525 92.7548L50.5259 90.3236L50.2085 94.7058ZM42.3658 89.3433L41.8004 87.2332L47.2874 85.763L47.8528 87.873L42.3658 89.3433Z" fill="#243138"/>
<path d="M35.8052 67.3911C36.6207 67.1726 37.1058 66.3343 36.8871 65.5181L28.2861 33.4189C28.0676 32.6034 27.228 32.1186 26.4125 32.3372C25.5964 32.5558 25.113 33.3951 25.3315 34.2106L33.9325 66.3098C34.1511 67.126 34.9891 67.6097 35.8052 67.3911Z" fill="#243138"/>
<path d="M42.5579 65.5818C43.3728 65.3635 43.8579 64.5252 43.6392 63.709L37.459 40.6442C37.2405 39.8287 36.4009 39.344 35.586 39.5623C34.7699 39.781 34.2858 40.6204 34.5043 41.4359L40.6845 64.5007C40.9032 65.3169 41.7418 65.8005 42.5579 65.5818Z" fill="#243138"/>
<path d="M62.4736 5.92562L51.9794 8.73754L51.2195 5.90185C51.0009 5.0857 50.1616 4.60229 49.3468 4.82062C48.5306 5.0393 48.0462 5.8774 48.2649 6.69354L70.8187 90.8655C71.0372 91.6809 71.876 92.1652 72.6921 91.9465C73.5069 91.7282 73.9918 90.8893 73.7733 90.0738L57.86 30.6842L68.3542 27.8723C69.8309 27.478 70.9519 26.2746 71.2411 24.7741C71.5306 23.2743 70.936 21.7401 69.7122 20.8257C70.4402 19.1361 69.9128 17.1681 68.4376 16.0689C69.1659 14.3807 68.6386 12.4127 67.1635 11.3141C67.5184 10.5001 67.5872 9.58854 67.3576 8.73143C66.7841 6.60721 64.5973 5.3502 62.4736 5.92562ZM63.2653 8.88026C63.5739 8.77632 63.9148 8.85141 64.1503 9.0773C64.3858 9.30319 64.4765 9.64154 64.3851 9.95358C64.2941 10.2669 64.0367 10.5038 63.7175 10.5681L53.2233 13.38L52.7711 11.6922L63.2653 8.88026ZM65.6644 14.231C65.8035 14.737 65.5178 15.2619 65.0181 15.422L54.5239 18.2339L54.015 16.3346L64.5092 13.5227C65.0218 13.4109 65.5319 13.7232 65.6644 14.231ZM66.9365 18.9785C66.997 19.2123 66.9581 19.4607 66.8309 19.6655C66.7036 19.8696 66.4979 20.014 66.2621 20.0644L55.7678 22.8763L55.3154 21.1879L65.8096 18.376C66.0389 18.3011 66.2892 18.3232 66.5017 18.437C66.7142 18.5508 66.8707 18.7461 66.9365 18.9785ZM67.5625 24.9177L57.0683 27.7296L56.5594 25.8303L67.0536 23.0184C67.5662 22.9094 68.0745 23.2201 68.2101 23.7263C68.3457 24.2325 68.061 24.7558 67.5625 24.9177Z" fill="#243138"/>
</svg>
