<svg width="70" height="89" viewBox="0 0 70 89" fill="none" xmlns="http://www.w3.org/2000/svg">
<path d="M68.8534 13.8261L59.0096 11.3782L56.5484 1.5847C56.4086 1.02733 55.9049 0.636231 55.3274 0.636231C54.7499 0.636231 54.2462 1.02733 54.1062 1.58489L52.157 9.34234C49.9456 8.2305 47.5105 7.65541 45.0082 7.66524L44.805 7.6662C41.3538 7.68123 38.1731 9.48549 36.2964 12.4923C35.05 14.4891 32.8976 15.6812 30.5387 15.6812C28.1797 15.6812 26.0272 14.4891 24.781 12.4923C22.9042 9.48549 19.7233 7.68123 16.2725 7.6662L16.0684 7.66524C16.0445 7.66524 16.0211 7.66504 15.9971 7.66504C7.50064 7.66504 0.420423 14.5147 0.198875 22.9665C0.153172 24.7074 0.391567 26.4245 0.910577 28.0793L6.52421 45.5351C6.52866 52.3664 7.98595 62.7562 11.2036 69.6661L18.4175 85.1567C19.0385 86.9523 20.6899 88.1644 22.5517 88.1815C23.7356 88.1934 24.8433 87.7434 25.6813 86.9175C26.5194 86.0913 26.9811 84.9899 26.9811 83.8162C26.9811 83.7 26.9649 83.5844 26.9329 83.4727C25.5043 78.4895 22.6412 64.4439 26.497 59.3611C27.4568 58.0959 28.7789 57.4807 30.5387 57.4807C32.2549 57.4807 33.5489 58.0832 34.4946 59.3228C38.3391 64.3618 35.5479 78.4061 34.1483 83.3924C34.1175 83.502 34.1018 83.6155 34.1018 83.7295C34.1018 85.9946 35.9071 87.9852 38.1261 88.1667C38.2496 88.1767 38.3722 88.1817 38.4942 88.1817C40.3605 88.1817 42.0225 87.0157 42.6378 85.2413L49.8857 69.6547C53.0956 62.7515 54.5492 52.3693 54.5533 45.5349L60.1699 28.0704C60.6858 26.4245 60.9243 24.7074 60.8786 22.9667C60.838 21.4138 60.5684 19.8966 60.0781 18.4386L68.8534 16.2559C69.4138 16.1167 69.807 15.6157 69.807 15.041C69.8068 14.4663 69.4136 13.9654 68.8534 13.8261ZM57.7295 16.4407C57.2617 16.5318 56.8712 16.884 56.7502 17.3662L55.327 23.0299L54.8467 21.1183C54.6782 20.4475 53.994 20.0394 53.3203 20.2072C52.6458 20.375 52.2356 21.0549 52.4045 21.7258L54.1062 28.497C54.2464 29.0545 54.7497 29.4454 55.3274 29.4454C55.9051 29.4454 56.4086 29.0543 56.5486 28.4968L58.2575 21.6957C58.3144 22.1369 58.35 22.5823 58.3618 23.0314C58.4002 24.497 58.1999 25.9413 57.7692 27.3156L52.0954 44.958C52.0551 45.0827 52.035 45.2278 52.0353 45.3588C52.0582 51.9113 50.6801 61.9801 47.6007 68.6026L40.3239 84.2514C40.303 84.2965 40.2846 84.3429 40.2693 84.3903C39.9999 85.2149 39.2042 85.7411 38.3327 85.67C37.4665 85.5991 36.7015 84.7785 36.6258 83.8752C37.2039 81.7501 41.6571 64.5699 36.5009 57.809C35.067 55.9289 33.0609 54.9756 30.5389 54.9756C27.9713 54.9756 25.9354 55.9433 24.4876 57.8518C19.3232 64.6596 23.8661 81.8339 24.4577 83.9661C24.4223 84.4096 24.231 84.8209 23.9097 85.1377C23.5526 85.4896 23.0808 85.6796 22.5754 85.6765C21.7831 85.6692 21.0474 85.1055 20.7863 84.3058C20.7708 84.2582 20.7524 84.2115 20.7313 84.1663L13.4882 68.6128C10.667 62.5543 9.27089 53.6173 9.06871 47.1164C12.5153 48.2392 20.6893 50.5049 30.5391 50.5049C35.4303 50.5049 40.524 49.9304 45.6782 48.7972C46.3572 48.6479 46.7858 47.9795 46.6357 47.3041C46.4858 46.6288 45.8134 46.202 45.135 46.3516C44.5175 46.4874 43.9008 46.6147 43.2856 46.7338L46.0309 39.8034C46.2858 39.1599 45.9682 38.4326 45.3213 38.1791C44.6745 37.9256 43.9438 38.2415 43.6888 38.885L40.3811 47.2351C37.0356 47.7431 33.7406 48.0001 30.5391 48.0001C26.9261 48.0001 23.5233 47.674 20.5152 47.2125L17.2164 38.885C16.9615 38.2415 16.2303 37.9256 15.5838 38.1791C14.937 38.4326 14.6194 39.1599 14.8743 39.8034L17.6085 46.7057C13.2183 45.8477 10.0213 44.8043 8.79449 44.3739L3.31119 27.3246C2.87758 25.9417 2.67734 24.4974 2.71588 23.0318C2.90257 15.9072 8.89558 10.1369 16.0566 10.1698L16.2614 10.1708C18.8402 10.1821 21.2257 11.5439 22.6422 13.8134C24.351 16.5513 27.303 18.1858 30.5389 18.1858C33.7747 18.1858 36.7267 16.5513 38.4355 13.8134C39.8518 11.5437 42.2373 10.182 44.8165 10.1708L45.0204 10.1698C45.0405 10.1698 45.0603 10.1696 45.0806 10.1696C47.1297 10.1696 49.1345 10.6434 50.9596 11.5485L41.8014 13.8263C41.2409 13.9656 40.8478 14.4665 40.8478 15.0412C40.8478 15.6159 41.2409 16.1168 41.8014 16.2561L49.7817 18.2407C50.4566 18.4085 51.1397 18.0003 51.3082 17.3294C51.4768 16.6584 51.0667 15.9785 50.3923 15.8109L47.2974 15.0412L52.9258 13.6414C53.3956 13.5498 53.7845 13.1959 53.9049 12.716L55.328 7.05258L56.7351 12.6515C56.8267 13.1169 57.1807 13.5053 57.6654 13.6258L63.3583 15.0414L57.7295 16.4407Z" fill="#243138"/>
</svg>
