<svg width="102" height="102" viewBox="0 0 102 102" fill="none" xmlns="http://www.w3.org/2000/svg">
<g clip-path="url(#clip0)">
<path d="M50.1955 41.1385L51.7139 46.8053C52.3428 49.1525 54.7556 50.5455 57.1028 49.9166C59.45 49.2877 60.843 46.8749 60.2141 44.5277L58.6957 38.8609C58.0667 36.5137 55.6539 35.1207 53.3067 35.7496C50.9595 36.3785 49.5665 38.7912 50.1955 41.1385ZM56.3435 47.0831C55.5612 47.2918 54.7577 46.8278 54.5473 46.0461L54.1677 44.6294L57.0012 43.8702L57.3808 45.2868C57.5892 46.0691 57.1252 46.8727 56.3435 47.0831ZM55.8622 39.6201L56.2418 41.0368L53.4085 41.796L53.0289 40.3793C52.8193 39.5969 53.2837 38.7927 54.066 38.5831C54.8484 38.3732 55.6525 38.8377 55.8622 39.6201Z" fill="#243138"/>
<path d="M36.2791 17.536C35.4966 17.7457 35.0324 18.55 35.242 19.3323L38.8376 32.7511C36.3747 37.2374 36.8169 42.2104 37.8247 45.9714C40.6361 56.4638 44.9955 62.5934 47.8806 66.6504C49.278 68.6152 50.3815 70.167 50.7039 71.3701L57.157 95.4538C58.2092 99.3627 62.2271 101.683 66.1384 100.639L74.6387 98.3615C78.5478 97.3093 80.8675 93.2915 79.8241 89.3801L73.3709 65.2965C73.0485 64.0936 73.2285 62.1979 73.456 59.7975C73.9259 54.8415 74.6366 47.3533 71.8252 36.861C70.8174 33.0998 68.7143 28.572 64.3379 25.9183L60.7423 12.4995C60.5326 11.717 59.7284 11.2528 58.9461 11.4624C58.1636 11.6721 57.6994 12.4764 57.909 13.2587L58.6682 16.0921L55.8348 16.8514L55.0755 14.0179C54.8659 13.2354 54.0616 12.7712 53.2793 12.9808C52.4969 13.1905 52.0326 13.9948 52.2423 14.7771L53.0015 17.6105L50.168 18.3698L49.4088 15.5363C49.1991 14.7538 48.3948 14.2896 47.6126 14.4992C46.8301 14.7089 46.3659 15.5132 46.5755 16.2955L47.3347 19.1289L44.5013 19.8882L43.742 17.0547C43.5324 16.2722 42.7281 15.808 41.9458 16.0176C41.1635 16.2273 40.6991 17.0316 40.9088 17.8139L41.668 20.6473L38.8345 21.4066L38.0753 18.5731C37.8657 17.7908 37.0613 17.3264 36.2791 17.536V17.536ZM65.304 30.4777C63.612 32.9978 62.1185 37.1422 63.011 43.5899C64.7796 56.3761 64.1623 60.1721 60.1392 61.2501C56.1162 62.3281 53.6836 59.3492 48.8221 47.3918C46.3712 41.3617 43.0058 38.5192 40.2802 37.1828C41.8411 30.341 48.512 27.9238 51.0288 27.2494C53.5456 26.5751 60.5313 25.333 65.304 30.4777ZM70.5358 59.5197C70.2802 62.2148 70.0786 64.3426 70.5376 66.0557L76.9908 90.1393C77.6167 92.4862 76.2249 94.8969 73.8795 95.5282L65.3793 97.8059C63.0324 98.4319 60.6216 97.04 59.9903 94.6946L53.5371 70.6109C53.0781 68.8977 51.8394 67.156 50.271 64.9506C47.343 60.8333 43.3327 55.1945 40.658 45.2122C40.2174 43.6293 39.98 41.997 39.951 40.3544C41.9732 41.628 44.2849 44.0186 46.105 48.4962C48.4228 54.1971 50.2826 58.2601 52.3906 60.8981C54.8109 63.927 57.594 64.9688 60.8986 64.0834C64.2032 63.1979 66.0925 60.9041 66.6741 57.0709C67.1807 53.7324 66.7598 49.2837 65.9167 43.1877C65.254 38.3999 66.0608 35.1737 67.1752 33.0597C67.9715 34.4967 68.5818 36.0293 68.9919 37.6201C71.6666 47.6023 71.0131 54.4909 70.536 59.5206L70.5358 59.5197ZM60.8955 24.4044C60.545 24.3002 60.1871 24.2028 59.8155 24.1197C55.8192 23.223 52.1195 23.9205 50.2698 24.4161C48.42 24.9117 44.8673 26.1575 41.8547 28.9323C41.5745 29.1901 41.3132 29.4533 41.0618 29.7189L39.5937 24.2398L59.4274 18.9254L60.8955 24.4044Z" fill="#243138"/>
<path d="M16.499 45.5002C16.187 44.0181 16.1741 42.7401 16.3803 41.6417C17.7063 34.5785 30.8964 38.7994 26.7819 44.6916C23.9452 48.754 17.6667 51.0458 16.499 45.5002Z" stroke="#243138" stroke-width="3"/>
<path d="M30.6343 9.58373C30.7528 5.14255 32.9677 3.0069 35.456 2.1068C38.7484 0.915826 43.0967 2.79316 43.235 6.29158C43.494 12.838 30.4228 17.5072 30.6343 9.58373Z" stroke="#243138" stroke-width="3"/>
<path d="M9.13442 18.7904C9.16663 17.5833 9.47682 16.682 9.94705 16.0171C11.9687 13.1586 17.5665 16.4226 15.3451 19.1288C13.4777 21.4037 9.04226 22.2433 9.13442 18.7904Z" stroke="#243138" stroke-width="2"/>
</g>
<defs>
<clipPath id="clip0">
<rect width="102" height="102" fill="white"/>
</clipPath>
</defs>
</svg>
