<svg width="58" height="96" viewBox="0 0 58 96" fill="none" xmlns="http://www.w3.org/2000/svg">
<path d="M20.1955 32.1385L21.7139 37.8053C22.3428 40.1525 24.7556 41.5455 27.1028 40.9166C29.45 40.2877 30.843 37.8749 30.2141 35.5277L28.6957 29.8609C28.0667 27.5137 25.6539 26.1207 23.3067 26.7496C20.9595 27.3785 19.5665 29.7912 20.1955 32.1385ZM26.3435 38.0831C25.5612 38.2918 24.7577 37.8278 24.5473 37.0461L24.1677 35.6294L27.0012 34.8702L27.3808 36.2868C27.5892 37.0691 27.1252 37.8727 26.3435 38.0831ZM25.8622 30.6201L26.2418 32.0368L23.4085 32.796L23.0289 31.3793C22.8193 30.5969 23.2837 29.7927 24.066 29.5831C24.8484 29.3732 25.6525 29.8377 25.8622 30.6201Z" fill="#243138"/>
<path d="M6.27906 8.53604C5.4966 8.7457 5.03239 9.54999 5.242 10.3323L8.83756 23.7511C6.37469 28.2374 6.81692 33.2104 7.82468 36.9714C10.6361 47.4638 14.9955 53.5934 17.8806 57.6504C19.278 59.6152 20.3815 61.167 20.7039 62.3701L27.157 86.4538C28.2092 90.3627 32.2271 92.6826 36.1384 91.6392L44.6387 89.3615C48.5478 88.3093 50.8675 84.2915 49.8241 80.3801L43.3709 56.2965C43.0485 55.0936 43.2285 53.1979 43.456 50.7975C43.9259 45.8415 44.6366 38.3533 41.8252 27.861C40.8174 24.0998 38.7143 19.572 34.3379 16.9183L30.7423 3.49949C30.5326 2.71703 29.7284 2.25282 28.9461 2.46243C28.1636 2.67209 27.6994 3.47638 27.909 4.25867L28.6682 7.09213L25.8348 7.85136L25.0755 5.01789C24.8659 4.23543 24.0616 3.77122 23.2793 3.98084C22.4969 4.1905 22.0326 4.99478 22.2423 5.77707L23.0015 8.61053L20.168 9.36976L19.4088 6.53629C19.1991 5.75383 18.3948 5.28963 17.6126 5.49924C16.8301 5.7089 16.3659 6.51319 16.5755 7.29547L17.3347 10.1289L14.5013 10.8882L13.742 8.05469C13.5324 7.27223 12.7281 6.80803 11.9458 7.01764C11.1635 7.22725 10.6991 8.03159 10.9088 8.81387L11.668 11.6473L8.83452 12.4066L8.07529 9.5731C7.86568 8.79081 7.06134 8.32643 6.27906 8.53604L6.27906 8.53604ZM35.304 21.4777C33.612 23.9978 32.1185 28.1422 33.011 34.5899C34.7796 47.3761 34.1623 51.1721 30.1392 52.2501C26.1162 53.3281 23.6836 50.3492 18.8221 38.3918C16.3712 32.3617 13.0058 29.5192 10.2802 28.1828C11.8411 21.341 18.512 18.9238 21.0288 18.2494C23.5456 17.5751 30.5313 16.333 35.304 21.4777ZM40.5358 50.5197C40.2802 53.2148 40.0786 55.3426 40.5376 57.0557L46.9908 81.1393C47.6167 83.4862 46.2249 85.8969 43.8795 86.5282L35.3793 88.8059C33.0324 89.4319 30.6216 88.04 29.9903 85.6946L23.5371 61.6109C23.0781 59.8977 21.8394 58.156 20.271 55.9506C17.343 51.8333 13.3327 46.1945 10.658 36.2122C10.2174 34.6293 9.97996 32.997 9.95103 31.3544C11.9732 32.628 14.2849 35.0186 16.105 39.4962C18.4228 45.1971 20.2826 49.2601 22.3906 51.8981C24.8109 54.927 27.594 55.9688 30.8986 55.0834C34.2032 54.1979 36.0925 51.9041 36.6741 48.0709C37.1807 44.7324 36.7598 40.2837 35.9167 34.1877C35.254 29.3999 36.0608 26.1737 37.1752 24.0597C37.9715 25.4967 38.5818 27.0293 38.9919 28.6201C41.6666 38.6023 41.0131 45.4909 40.536 50.5206L40.5358 50.5197ZM30.8955 15.4044C30.545 15.3002 30.1871 15.2028 29.8155 15.1197C25.8192 14.223 22.1195 14.9205 20.2698 15.4161C18.42 15.9117 14.8673 17.1575 11.8547 19.9323C11.5745 20.1901 11.3132 20.4533 11.0618 20.7189L9.59369 15.2398L29.4274 9.92542L30.8955 15.4044Z" fill="#243138"/>
</svg>
