<svg width="102" height="102" viewBox="0 0 102 102" fill="none" xmlns="http://www.w3.org/2000/svg">
<path d="M92.8665 43.1711H63.6971C62.4522 39.9542 59.8851 37.3985 56.6072 36.1866C56.3535 36.0928 56.0968 36.0075 55.8376 35.9308C55.5612 31.1967 52.4915 26.9549 47.9514 25.2763C45.7102 24.4476 43.2968 24.304 41.0002 24.8427C39.4143 22.2456 36.5604 20.5947 33.4342 20.5947C30.3847 20.5947 27.6219 22.1285 26.0093 24.6136C25.3741 24.4903 24.7261 24.4281 24.0708 24.4281C18.4886 24.4281 13.947 28.9697 13.947 34.552C13.947 34.8212 13.9576 35.09 13.9788 35.3577C11.6542 36.3538 9.82544 38.255 8.92705 40.6849C8.60441 41.5574 8.41534 42.4721 8.36305 43.3937C5.2831 44.1832 3 46.9824 3 50.3046V50.3497C3 53.6858 5.30205 56.4943 8.40094 57.2703V63.3101C8.40094 73.9426 14.7579 83.1184 23.8706 87.2363C23.7618 87.7181 23.7063 88.2131 23.7063 88.7127C23.7063 92.4054 26.7105 95.4097 30.4033 95.4097C33.8127 95.4097 36.6352 92.8487 37.0482 89.5494H65.9518C66.3648 92.8487 69.1873 95.4097 72.5967 95.4097C76.2893 95.4097 79.2937 92.4056 79.2937 88.7127C79.2937 88.2131 79.2382 87.7181 79.1294 87.2363C88.2421 83.1184 94.5991 73.9426 94.5991 63.3101V57.2703C97.698 56.4943 100 53.6858 100 50.3497V50.3046C100 46.3712 96.7999 43.1711 92.8665 43.1711ZM12.4806 41.9988C13.1403 40.2142 14.647 38.91 16.5107 38.51C17.0169 38.4015 17.4568 38.0904 17.7277 37.6491C17.9987 37.2079 18.0773 36.675 17.945 36.1742C17.8062 35.6478 17.7357 35.1017 17.7357 34.5518C17.7357 31.0588 20.5775 28.217 24.0704 28.217C24.8402 28.217 25.592 28.3532 26.3045 28.6217C27.2675 28.9849 28.3443 28.5124 28.7295 27.5579C29.5076 25.6296 31.3542 24.3836 33.4338 24.3836C35.5805 24.3836 37.5025 25.7426 38.2168 27.7654C38.3882 28.2507 38.7497 28.6456 39.2182 28.8589C39.6867 29.072 40.2219 29.0855 40.7005 28.8962C42.6054 28.1424 44.7139 28.1189 46.6374 28.8301C50.118 30.1168 52.3407 33.5956 52.0421 37.2896C51.962 38.2813 52.663 39.1663 53.6468 39.3152C54.2044 39.3997 54.7585 39.5427 55.2933 39.7405C57.057 40.3926 58.521 41.6112 59.4839 43.171H12.1875C12.2421 42.7725 12.3401 42.3792 12.4806 41.9988ZM30.4033 91.6208C28.8 91.6208 27.4954 90.3165 27.4954 88.7129C27.4954 88.6637 27.4965 88.6146 27.4992 88.5657C29.3547 89.0899 31.2619 89.4059 33.1998 89.5107C32.8522 90.7276 31.7301 91.6208 30.4033 91.6208ZM72.5967 91.6208C71.27 91.6208 70.1478 90.7276 69.8002 89.5109C71.7381 89.4061 73.6453 89.0899 75.5008 88.5659C75.5033 88.6148 75.5046 88.6639 75.5046 88.7131C75.5046 90.3165 74.2 91.6208 72.5967 91.6208ZM68.9397 85.7529C68.9382 85.7529 68.9366 85.7529 68.9353 85.7531C68.8921 85.7542 68.8489 85.7552 68.8057 85.7559C68.7974 85.7561 68.7889 85.7563 68.7805 85.7565C68.7447 85.7573 68.7089 85.7576 68.6731 85.7582C68.6602 85.7584 68.6471 85.7586 68.6341 85.7588C68.6011 85.7592 68.568 85.7595 68.535 85.7597C68.5219 85.7599 68.5089 85.7599 68.4956 85.7601C68.4503 85.7603 68.405 85.7605 68.3597 85.7605H34.6402C34.595 85.7605 34.5497 85.7603 34.5044 85.7601C34.4913 85.7601 34.4783 85.7599 34.4652 85.7597C34.4322 85.7595 34.3991 85.7592 34.3661 85.7588C34.353 85.7586 34.3402 85.7584 34.3271 85.7582C34.2913 85.7576 34.2555 85.7573 34.2197 85.7565C34.2113 85.7563 34.2028 85.7561 34.1945 85.7559C34.1513 85.7552 34.1081 85.7542 34.0649 85.7531C34.0634 85.7531 34.0618 85.7531 34.0605 85.7529C21.9484 85.4443 12.1902 75.4953 12.1902 63.3101V62.8518H67.0182C68.0646 62.8518 68.9128 62.0036 68.9128 60.9572C68.9128 59.9109 68.0646 59.0627 67.0182 59.0627H12.19V57.483H90.8098V63.3101H90.81C90.81 75.4953 81.0518 85.4445 68.9397 85.7529ZM96.2109 50.3497C96.2109 52.1939 94.7106 53.6941 92.8665 53.6941H10.1335C8.28935 53.6941 6.78907 52.1939 6.78907 50.3497V50.3046C6.78907 48.4605 8.28935 46.9602 10.1335 46.9602H92.8665C94.7106 46.9602 96.2109 48.4605 96.2109 50.3046V50.3497Z" fill="#243138"/>
<path d="M76 21.25C74.8954 21.25 74 22.1454 74 23.25C74 24.3546 74.8954 25.25 76 25.25V21.25ZM94.5 25.25C95.6046 25.25 96.5 24.3546 96.5 23.25C96.5 22.1454 95.6046 21.25 94.5 21.25V25.25ZM76 25.25H85.25V21.25H76V25.25ZM85.25 25.25H94.5V21.25H85.25V25.25Z" fill="#243138"/>
<path d="M83.25 32.5C83.25 33.6046 84.1454 34.5 85.25 34.5C86.3546 34.5 87.25 33.6046 87.25 32.5L83.25 32.5ZM87.25 14C87.25 12.8954 86.3546 12 85.25 12C84.1454 12 83.25 12.8954 83.25 14L87.25 14ZM87.25 32.5L87.25 23.25L83.25 23.25L83.25 32.5L87.25 32.5ZM87.25 23.25L87.25 14L83.25 14L83.25 23.25L87.25 23.25Z" fill="#243138"/>
</svg>
