<svg width="78" height="78" viewBox="0 0 78 78" fill="none" xmlns="http://www.w3.org/2000/svg">
<g clip-path="url(#clip0)">
<path d="M39.7198 74.8462L39.6871 74.8707L39.6554 74.8966C39.2762 75.206 38.7344 75.1995 38.3787 74.9116L38.3786 74.9115L38.3635 74.8993C38.3487 74.887 38.3286 74.8705 38.3036 74.8498C37.455 74.1492 30.8253 68.6759 24.1155 60.9793C14.3821 49.784 9.76953 40.1008 9.76953 32.1142V31.2459C9.76953 15.1202 22.8897 2 39.0155 2C55.1406 2 68.2608 15.1202 68.2608 31.2459V32.1142C68.2608 40.1012 63.6476 49.7997 53.8999 60.9787L53.8997 60.9789C50.3866 65.009 46.8945 68.438 44.2416 70.8883C42.9162 72.1125 41.8034 73.0894 41.0065 73.7718C40.608 74.113 40.2893 74.3798 40.0633 74.5664C39.8205 74.7669 39.7138 74.8507 39.7198 74.8462Z" stroke="#243138" stroke-width="4"/>
<path d="M42.0234 29.0078V36.0156H35.0156V29.0078H28.0078V36.0156H21V29.0078H28.0078V22H35.0156V29.0078H42.0234V22H49.0312V29.0078H42.0234Z" fill="#243138"/>
<path d="M56.0539 29.0078V36.0156H49.0461V29.0078H56.0539Z" fill="#243138"/>
</g>
<defs>
<clipPath id="clip0">
<rect width="78" height="78" fill="white"/>
</clipPath>
</defs>
</svg>
