<svg width="303" height="78" viewBox="0 0 303 78" fill="none" xmlns="http://www.w3.org/2000/svg">
<path d="M36.6123 12.06C25.3942 16.6384 16.4644 27.5818 4.46491 25.851C3.9068 25.7951 3.34868 25.9068 2.90219 26.1301C5.19046 32.4394 11.2181 40.1445 26.622 43.1595C51.6255 48.017 43.3096 70.9648 50.007 75.8223C55.0858 79.5632 76.7407 61.2497 79.1405 38.5253C78.6382 34.0586 77.3546 29.536 74.8989 25.0693C66.6388 9.65914 48.6117 7.20245 36.6123 12.06Z" fill="#FFC11C"/>
<path d="M62.5087 55.3874C74.1733 55.3874 78.9731 44.1089 78.9731 44.1089C78.9731 44.1089 99.0652 50.8648 108.665 33.8355L105.818 32.4396C105.818 32.4396 109.111 19.3745 92.4795 16.0803V3.01514C92.4795 3.01514 65.8574 19.4303 57.5415 32.4955C56.4253 34.2263 55.4765 36.0688 54.6951 37.9672C52.2953 47.0123 54.137 55.3874 62.5087 55.3874Z" fill="#222728"/>
<path d="M51.7374 77.9994C50.677 77.9994 49.784 77.7202 49.0585 77.2177C46.3237 75.2077 45.654 71.2434 44.9284 66.7209C43.5889 58.3458 41.9146 47.9049 26.3432 44.834C16.8553 42.9915 9.76725 39.1948 5.24653 33.5555C1.45135 28.8097 0.279314 23.8404 0.000256598 20.4904C-0.111366 19.2621 0.390936 18.0337 1.28392 17.1404C2.23271 16.247 3.46056 15.8562 4.68841 16.0795C11.8323 17.1404 17.9715 13.1203 24.5015 8.87694C28.1292 6.53192 31.8686 4.07523 35.9986 2.40021C42.6402 -0.279821 50.5096 -0.726492 57.5976 1.2277C63.3462 2.79105 71.2714 6.69942 76.406 16.1912C81.7639 26.1855 82.5453 37.5197 78.5269 48.9657C75.5131 57.62 69.597 66.3859 62.7323 72.3601C58.4906 75.9893 54.5838 77.9994 51.7374 77.9994ZM4.1303 19.3179C3.85124 19.3179 3.68381 19.4296 3.57219 19.5412C3.46056 19.6529 3.29313 19.8762 3.29313 20.2112C3.85124 26.5763 7.64642 37.7989 27.013 41.5956C44.8726 45.0573 46.826 57.285 48.2213 66.2184C48.8352 70.0709 49.3375 73.3651 51.0119 74.5935C51.9048 75.2635 55.5884 74.2026 60.5556 69.8476C66.9739 64.2642 72.5551 56.0566 75.4014 47.849C77.9688 40.5348 79.6989 29.3122 73.5038 17.7545C67.6995 7.03442 53.0769 -0.949828 37.2264 5.47107C33.4313 7.03442 29.8035 9.37945 26.2874 11.6686C19.5342 16.0795 12.5578 20.6021 4.18611 19.3737C4.18611 19.3179 4.18611 19.3179 4.1303 19.3179Z" fill="#222728"/>
<path d="M60.8344 61.9757C56.8718 61.9757 53.8022 60.3007 52.0162 57.0623C48.7792 51.1439 50.4535 40.4238 56.0346 31.6021C64.4622 18.3136 90.4144 2.28924 91.5307 1.5634C92.033 1.22839 92.7027 1.22839 93.205 1.50756C93.7073 1.78673 94.0422 2.34507 94.0422 2.95924V14.7402C99.4001 16.0244 103.251 18.4811 105.484 22.0545C107.772 25.6837 107.772 29.5362 107.549 31.4904L109.781 32.6071C110.562 32.9979 110.897 33.8354 110.618 34.6729C103.084 55.499 83.4938 52.3723 78.1359 51.0323C76.4058 54.159 71.1037 61.9757 60.8344 61.9757ZM90.8051 6.03011C84.0519 10.441 65.4109 23.1153 58.881 33.3887C53.9696 41.1497 52.2953 50.6414 54.9184 55.4431C56.0904 57.5648 58.0438 58.6257 60.8344 58.6257C71.2153 58.6257 75.5686 48.7989 75.7919 48.3522C76.1267 47.5706 77.0197 47.1797 77.8569 47.4589C77.9127 47.4589 83.5496 49.3014 90.0238 48.4639C98.0606 47.4031 103.753 42.8247 107.046 34.8404L105.093 33.8912C104.367 33.5562 104.032 32.7746 104.2 31.9929C104.2 31.9371 105.204 27.6378 102.749 23.7295C100.795 20.7144 97.2234 18.6486 92.1446 17.6436C91.3632 17.4761 90.8051 16.8061 90.8051 16.0244V6.03011Z" fill="#222728"/>
<path d="M4.46493 17.6995C2.90221 17.4761 1.50692 18.8162 1.61855 20.3795C1.73017 21.9429 2.12085 24.0087 2.90221 26.1862C3.29289 26.1304 3.68357 26.1304 4.13006 26.0746C11.6646 25.0137 11.553 20.547 10.4926 17.532C8.59497 17.867 6.58576 17.9787 4.46493 17.6995Z" fill="#222728"/>
<path d="M34.1566 16.1918C34.045 16.1918 33.9333 16.1918 33.8217 16.136C33.431 15.9685 33.2078 15.466 33.3752 15.0751C33.431 14.9635 34.6031 12.2834 36.8913 12.0601C38.454 11.8926 39.961 12.8418 41.4679 14.9076C41.7469 15.2985 41.6353 15.801 41.3004 16.0801C40.9097 16.3593 40.4074 16.2476 40.1284 15.9126C39.347 14.8518 38.175 13.6235 37.0588 13.7351C35.9425 13.8468 35.1054 15.2426 34.8821 15.801C34.7705 16.0243 34.4356 16.1918 34.1566 16.1918Z" fill="#222728"/>
<path d="M100.795 31.6019C101.72 31.6019 102.47 30.877 102.47 29.9827C102.47 29.0885 101.72 28.3635 100.795 28.3635C99.8707 28.3635 99.121 29.0885 99.121 29.9827C99.121 30.877 99.8707 31.6019 100.795 31.6019Z" fill="white"/>
<path d="M106.711 32.8862C106.209 33.6121 105.763 34.5612 105.763 35.6779C105.763 36.9621 106.544 37.5204 107.549 37.6321C108.107 36.5154 108.665 35.3429 109.111 34.0029L106.711 32.8862Z" fill="#222728"/>
<path d="M127.641 34.5611L127.529 9.15666L142.319 9.10083V14.6842H134.282L134.338 34.5053L127.641 34.5611Z" fill="#222728"/>
<path d="M151.528 43.1037H145.333L145.221 17.1968H151.416V19.0951C152.756 17.4759 154.542 16.6384 156.83 16.6384C158.114 16.6384 159.286 16.8618 160.346 17.3643C161.406 17.8668 162.355 18.4809 163.192 19.3185C163.974 20.156 164.644 21.1051 165.09 22.2218C165.537 23.3385 165.76 24.5668 165.76 25.851C165.76 27.1352 165.537 28.3077 165.09 29.4244C164.644 30.5411 164.03 31.4903 163.248 32.3278C162.467 33.1653 161.518 33.8353 160.458 34.282C159.397 34.7845 158.225 35.0078 156.942 35.0078C154.765 35.0078 152.923 34.282 151.472 32.7744L151.528 43.1037ZM159.286 25.851C159.286 25.2927 159.174 24.7902 159.007 24.3435C158.839 23.8968 158.504 23.4502 158.169 23.0593C157.779 22.7243 157.388 22.3893 156.886 22.2218C156.383 21.9985 155.881 21.8868 155.267 21.8868C154.709 21.8868 154.207 21.9985 153.705 22.2218C153.202 22.4452 152.812 22.7243 152.477 23.0593C152.142 23.3943 151.863 23.841 151.639 24.3435C151.416 24.846 151.305 25.3485 151.305 25.851C151.305 26.4094 151.416 26.9119 151.639 27.3585C151.863 27.8052 152.142 28.2519 152.477 28.5869C152.867 28.9219 153.258 29.2011 153.76 29.4244C154.263 29.6477 154.765 29.7594 155.323 29.7594C155.881 29.7594 156.383 29.6477 156.886 29.4244C157.388 29.2011 157.779 28.9219 158.114 28.5869C158.448 28.2519 158.728 27.8052 158.951 27.3585C159.174 26.9119 159.286 26.4094 159.286 25.851Z" fill="#222728"/>
<path d="M174.801 32.0487L166.262 17.141H173.462L178.206 25.9628L182.726 17.0852H189.87L175.806 43.048H168.829L174.801 32.0487Z" fill="#222728"/>
<path d="M201.256 34.3378L197.405 24.176L195.731 34.3378H190.484L193.777 17.0293H198.912L202.595 26.3536L206.223 17.0293H211.358L214.762 34.282H209.46L207.73 24.1202L203.935 34.282L201.256 34.3378Z" fill="#222728"/>
<path d="M216.548 29.257C216.66 29.257 216.716 29.3128 216.883 29.3128C218.167 29.3128 218.836 28.3078 218.836 26.3536L218.781 8.87761L239.933 8.82178L240.045 34.2262H233.347L233.292 14.4052H225.534L225.59 26.4095C225.59 27.6936 225.422 28.8103 225.031 29.8712C224.641 30.932 224.083 31.8254 223.357 32.5512C222.632 33.3329 221.739 33.8912 220.678 34.3379C219.618 34.7846 218.446 34.9521 217.162 34.9521H216.66L216.548 29.257Z" fill="#222728"/>
<path d="M250.37 26.577C250.37 29.2012 251.653 30.5412 254.165 30.4854C255.504 30.4854 256.509 29.927 257.235 28.8662H263.262C262.09 32.8304 259.021 34.7846 254.165 34.8404C252.658 34.8404 251.319 34.6171 250.091 34.1704C248.863 33.7238 247.803 33.1096 246.91 32.3279C246.017 31.5462 245.347 30.5412 244.845 29.4245C244.342 28.3079 244.119 27.0237 244.119 25.6278C244.119 24.1761 244.342 22.892 244.789 21.7195C245.235 20.5469 245.905 19.5978 246.742 18.7603C247.579 17.9227 248.584 17.3086 249.812 16.8619C250.984 16.4152 252.379 16.1919 253.886 16.1919C255.393 16.1919 256.732 16.4152 257.904 16.8619C259.076 17.3086 260.081 17.9227 260.918 18.7603C261.755 19.5978 262.369 20.6028 262.816 21.7753C263.262 23.0036 263.486 24.3436 263.486 25.8512V26.4653L250.37 26.577ZM257.625 23.0036C257.402 22.1661 257.011 21.4403 256.342 20.9378C255.672 20.4353 254.946 20.1561 253.998 20.1561C253.049 20.1561 252.267 20.4353 251.653 20.8819C251.04 21.3845 250.649 22.0545 250.537 22.9478L257.625 23.0036Z" fill="#222728"/>
<path d="M279.95 21.887H275.82L275.876 34.0588H269.681L269.625 21.887H265.495V16.8061L279.95 16.7502V21.887Z" fill="#222728"/>
<path d="M296.693 16.7501H302.944L303 34.0587H296.749V32.1603C295.41 33.7795 293.624 34.617 291.391 34.617C290.108 34.617 288.936 34.3937 287.875 33.947C286.815 33.5003 285.866 32.8303 285.029 31.9928C284.247 31.1553 283.578 30.2061 283.131 29.0894C282.685 27.9728 282.461 26.7444 282.461 25.4044C282.461 24.1761 282.685 23.0035 283.075 21.8869C283.522 20.7702 284.136 19.821 284.861 18.9835C285.643 18.146 286.536 17.476 287.652 17.0293C288.712 16.5268 289.94 16.3035 291.224 16.3035C293.4 16.3035 295.242 17.0293 296.693 18.5368V16.7501ZM288.88 25.3486C288.88 25.9069 288.991 26.4094 289.215 26.9119C289.438 27.4144 289.717 27.8053 290.052 28.1961C290.387 28.5311 290.833 28.8103 291.335 29.0336C291.838 29.2569 292.34 29.3128 292.954 29.3128C293.512 29.3128 294.014 29.2011 294.517 28.9778C295.019 28.7544 295.41 28.4753 295.8 28.1403C296.135 27.8053 296.414 27.3586 296.638 26.9119C296.861 26.4652 296.972 25.9069 296.972 25.4044C296.972 24.8461 296.861 24.3436 296.638 23.8969C296.414 23.3944 296.135 23.0035 295.8 22.6127C295.465 22.2777 295.019 21.9985 294.517 21.7752C294.014 21.5519 293.512 21.496 292.954 21.496C292.396 21.496 291.838 21.6077 291.335 21.831C290.833 22.0544 290.442 22.3335 290.052 22.6685C289.717 23.0035 289.438 23.4502 289.215 23.8969C288.991 24.2877 288.88 24.7902 288.88 25.3486Z" fill="#222728"/>
<path d="M125.687 50.418H128.589C128.924 50.418 129.203 50.418 129.427 50.418C129.65 50.418 129.873 50.4738 130.096 50.5296C130.32 50.5855 130.487 50.6413 130.654 50.753C130.822 50.8646 130.989 50.9763 131.101 51.1438C131.213 51.3113 131.324 51.4788 131.436 51.7021C131.492 51.9255 131.547 52.1488 131.547 52.428C131.547 52.5397 131.547 52.7072 131.492 52.8747C131.436 53.0422 131.38 53.2097 131.324 53.3213C131.213 53.4888 131.101 53.6005 130.989 53.768C130.878 53.8797 130.654 53.9913 130.487 54.103C130.654 54.1588 130.822 54.2147 130.989 54.3263C131.157 54.438 131.324 54.5497 131.492 54.7172C131.659 54.8847 131.771 55.0522 131.827 55.2755C131.938 55.4989 131.994 55.778 131.994 56.0572C131.994 56.2247 131.994 56.3922 131.938 56.6155C131.882 56.783 131.827 57.0064 131.715 57.1739C131.603 57.3414 131.492 57.5089 131.324 57.6764C131.157 57.8439 130.989 57.9555 130.766 58.0672C130.543 58.1789 130.32 58.2905 130.041 58.3464C129.761 58.4022 129.427 58.458 129.092 58.458H125.631L125.687 50.418ZM128.869 53.8238C129.203 53.8238 129.538 53.768 129.761 53.7122C129.985 53.6563 130.152 53.5447 130.264 53.433C130.375 53.3213 130.487 53.1538 130.487 53.0422C130.543 52.8747 130.543 52.7072 130.543 52.5397C130.543 52.3722 130.487 52.2047 130.431 52.0371C130.375 51.8696 130.264 51.758 130.152 51.6463C130.041 51.5346 129.817 51.4788 129.65 51.423C129.427 51.3671 129.148 51.3671 128.869 51.3671H126.804V53.8238H128.869ZM129.036 57.5089C129.371 57.5089 129.706 57.453 129.929 57.3972C130.152 57.3414 130.375 57.2297 130.543 57.118C130.71 57.0064 130.822 56.8389 130.878 56.6714C130.934 56.5039 130.989 56.2805 130.989 56.113C130.989 55.9455 130.934 55.7222 130.878 55.5547C130.822 55.3872 130.71 55.2197 130.543 55.108C130.375 54.9963 130.208 54.8847 129.929 54.8288C129.706 54.773 129.371 54.7172 129.036 54.7172H126.859V57.5089H129.036Z" fill="#222728"/>
<path d="M138.412 55.499C138.412 56.0015 138.356 56.3924 138.245 56.7832C138.133 57.174 137.966 57.509 137.687 57.7882C137.463 58.0674 137.184 58.2907 136.794 58.4024C136.459 58.5699 136.068 58.6257 135.622 58.6257C135.175 58.6257 134.785 58.5699 134.45 58.4024C134.115 58.2349 133.836 58.0674 133.557 57.7882C133.333 57.509 133.11 57.174 132.999 56.7832C132.887 56.3924 132.831 55.9457 132.831 55.499C132.831 55.0523 132.887 54.6057 132.999 54.2148C133.11 53.824 133.278 53.489 133.557 53.2098C133.78 52.9307 134.059 52.7073 134.45 52.5956C134.785 52.4281 135.175 52.3723 135.622 52.3723C136.068 52.3723 136.459 52.4281 136.794 52.5956C137.129 52.7631 137.408 52.9307 137.687 53.2098C137.91 53.489 138.133 53.824 138.245 54.2148C138.356 54.6057 138.412 54.9965 138.412 55.499ZM137.408 55.499C137.408 55.164 137.352 54.8848 137.296 54.6057C137.24 54.3265 137.129 54.1032 136.961 53.8798C136.794 53.6565 136.626 53.5448 136.403 53.4332C136.18 53.3215 135.957 53.2657 135.622 53.2657C135.287 53.2657 135.064 53.3215 134.896 53.4332C134.729 53.5448 134.505 53.7123 134.338 53.8798C134.171 54.1032 134.059 54.3265 134.003 54.6057C133.947 54.8848 133.892 55.164 133.892 55.499C133.892 55.834 133.947 56.1132 134.003 56.3924C134.059 56.6715 134.171 56.8949 134.338 57.1182C134.505 57.3415 134.673 57.4532 134.896 57.5649C135.119 57.6765 135.343 57.7324 135.622 57.7324C135.901 57.7324 136.18 57.6765 136.403 57.5649C136.626 57.4532 136.794 57.2857 136.961 57.1182C137.129 56.8949 137.24 56.6715 137.296 56.3924C137.352 56.1132 137.408 55.834 137.408 55.499Z" fill="#222728"/>
<path d="M143.603 53.433H141.314L141.259 54.8288C141.259 55.5547 141.203 56.113 141.091 56.6155C140.98 57.118 140.868 57.453 140.756 57.788C140.589 58.0672 140.421 58.2905 140.198 58.4022C139.975 58.5139 139.752 58.5697 139.473 58.5697C139.361 58.5697 139.305 58.5697 139.194 58.5139C139.138 58.458 139.082 58.458 139.026 58.4022V57.5089C139.194 57.5647 139.305 57.5647 139.417 57.5647C139.473 57.5647 139.584 57.5647 139.64 57.5089C139.696 57.5089 139.808 57.453 139.863 57.3414C139.919 57.2855 139.975 57.1739 140.031 57.0064C140.087 56.8947 140.142 56.6714 140.198 56.5039C140.254 56.2805 140.254 56.0014 140.31 55.7222C140.31 55.443 140.366 55.0522 140.366 54.6055L140.421 52.428H144.719V58.2905H143.714L143.603 53.433Z" fill="#222728"/>
<path d="M151.305 55.4431C151.305 55.9456 151.249 56.3365 151.137 56.7273C151.026 57.1181 150.858 57.4531 150.579 57.7323C150.356 58.0115 150.077 58.2348 149.686 58.3465C149.351 58.514 148.961 58.5698 148.514 58.5698C148.068 58.5698 147.677 58.514 147.342 58.3465C147.007 58.179 146.728 58.0115 146.449 57.7323C146.226 57.4531 146.003 57.1181 145.891 56.7273C145.779 56.3365 145.724 55.8898 145.724 55.4431C145.724 54.9964 145.779 54.5498 145.891 54.1589C146.003 53.7681 146.17 53.4331 146.449 53.1539C146.672 52.8747 146.951 52.6514 147.342 52.5397C147.677 52.3722 148.068 52.3164 148.514 52.3164C148.961 52.3164 149.351 52.3722 149.686 52.5397C150.021 52.7072 150.3 52.8747 150.579 53.1539C150.802 53.4331 151.026 53.7681 151.137 54.1589C151.249 54.5498 151.305 54.9964 151.305 55.4431ZM150.3 55.4431C150.3 55.1081 150.244 54.8289 150.188 54.5498C150.133 54.2706 150.021 54.0473 149.854 53.8239C149.686 53.6006 149.519 53.4889 149.295 53.3773C149.072 53.2656 148.849 53.2098 148.514 53.2098C148.235 53.2098 147.956 53.2656 147.789 53.3773C147.565 53.4889 147.398 53.6564 147.23 53.8239C147.063 54.0473 146.951 54.2706 146.896 54.5498C146.84 54.8289 146.784 55.1081 146.784 55.4431C146.784 55.7781 146.84 56.0573 146.896 56.3365C146.951 56.6156 147.063 56.839 147.23 57.0623C147.398 57.2856 147.565 57.3973 147.789 57.509C148.012 57.6206 148.235 57.6765 148.514 57.6765C148.793 57.6765 149.072 57.6206 149.295 57.509C149.519 57.3973 149.686 57.2298 149.854 57.0623C150.021 56.839 150.133 56.6156 150.188 56.3365C150.244 56.1131 150.3 55.7781 150.3 55.4431Z" fill="#222728"/>
<path d="M152.477 52.5398H156.16V53.4331H153.481V58.4024H152.477V52.5398Z" fill="#222728"/>
<path d="M162.244 55.4431C162.244 55.9456 162.188 56.3365 162.076 56.7273C161.965 57.1181 161.797 57.4531 161.518 57.7323C161.295 58.0115 161.016 58.2348 160.625 58.3465C160.29 58.514 159.9 58.5698 159.453 58.5698C159.007 58.5698 158.616 58.514 158.281 58.3465C157.946 58.179 157.667 58.0115 157.388 57.7323C157.165 57.4531 156.942 57.1181 156.83 56.7273C156.718 56.3365 156.663 55.8898 156.663 55.4431C156.663 54.9964 156.718 54.5498 156.83 54.1589C156.942 53.7681 157.109 53.4331 157.388 53.1539C157.611 52.8747 157.89 52.6514 158.281 52.5397C158.616 52.3722 159.007 52.3164 159.453 52.3164C159.9 52.3164 160.29 52.3722 160.625 52.5397C160.96 52.7072 161.239 52.8747 161.518 53.1539C161.741 53.4331 161.965 53.7681 162.076 54.1589C162.188 54.4939 162.244 54.9406 162.244 55.4431ZM161.239 55.4431C161.239 55.1081 161.183 54.8289 161.128 54.5498C161.072 54.2706 160.96 54.0473 160.793 53.8239C160.625 53.6006 160.458 53.4889 160.235 53.3773C160.011 53.2656 159.788 53.2098 159.453 53.2098C159.174 53.2098 158.895 53.2656 158.728 53.3773C158.504 53.4889 158.337 53.6564 158.169 53.8239C158.002 54.0473 157.89 54.2706 157.835 54.5498C157.779 54.8289 157.723 55.1081 157.723 55.4431C157.723 55.7781 157.779 56.0573 157.835 56.3365C157.89 56.6156 158.002 56.839 158.169 57.0623C158.337 57.2856 158.504 57.3973 158.728 57.509C158.951 57.6206 159.174 57.6765 159.453 57.6765C159.732 57.6765 160.011 57.6206 160.235 57.509C160.458 57.3973 160.625 57.2298 160.793 57.0623C160.96 56.839 161.072 56.6156 161.128 56.3365C161.183 56.0573 161.239 55.7781 161.239 55.4431Z" fill="#222728"/>
<path d="M168.383 58.3464H163.751V59.7981H162.802V57.5089H163.583C163.751 57.1181 163.862 56.7273 163.974 56.2806C164.086 55.8339 164.141 55.4431 164.197 55.0522C164.253 54.6614 164.253 54.2147 164.309 53.7681C164.309 53.3214 164.309 52.9306 164.309 52.4839H168.495V57.4531H169.332V59.7423H168.383V58.3464ZM167.49 57.4531V53.3214H165.313C165.313 53.6564 165.258 53.9914 165.258 54.3264C165.258 54.6614 165.202 55.0522 165.146 55.3872C165.09 55.7223 165.034 56.1131 164.979 56.4481C164.923 56.7831 164.811 57.1181 164.699 57.4531H167.49Z" fill="#222728"/>
<path d="M175.025 56.2806C175.025 56.4481 174.969 56.5598 174.913 56.7273C174.857 56.8948 174.801 57.0623 174.746 57.2298C174.69 57.3973 174.578 57.5648 174.411 57.7323C174.299 57.8998 174.132 58.0115 173.964 58.1231C173.797 58.2348 173.573 58.3465 173.294 58.4023C173.071 58.4581 172.736 58.514 172.457 58.514C172.29 58.514 172.122 58.514 171.899 58.4581C171.732 58.4023 171.508 58.3465 171.341 58.2348C171.174 58.1231 171.006 58.0115 170.839 57.844C170.671 57.6765 170.504 57.509 170.392 57.2856C170.281 57.0623 170.169 56.7831 170.113 56.5039C170.057 56.2248 170.002 55.8339 170.002 55.4431C170.002 54.9406 170.057 54.4939 170.225 54.1589C170.336 53.7681 170.56 53.4331 170.783 53.1539C171.006 52.8747 171.285 52.6514 171.62 52.5397C171.955 52.3722 172.29 52.3164 172.625 52.3164C172.96 52.3164 173.239 52.3722 173.462 52.4281C173.685 52.4839 173.908 52.5956 174.076 52.7072C174.243 52.8189 174.411 52.9306 174.522 53.0981C174.634 53.2656 174.746 53.3773 174.801 53.5448C174.857 53.7123 174.913 53.8798 174.969 54.0473C175.025 54.2148 175.025 54.3823 175.025 54.4939H174.076C174.02 54.1031 173.908 53.7681 173.629 53.5448C173.406 53.3214 173.071 53.2098 172.68 53.2098C172.401 53.2098 172.178 53.2656 171.955 53.3773C171.732 53.4889 171.564 53.6564 171.453 53.8798C171.341 54.1031 171.229 54.3264 171.118 54.6056C171.062 54.8848 171.006 55.2198 171.006 55.5548C171.006 55.9456 171.062 56.2806 171.118 56.5598C171.174 56.839 171.285 57.0623 171.453 57.2298C171.564 57.3973 171.732 57.5648 171.955 57.6206C172.178 57.7323 172.401 57.7323 172.625 57.7323C172.792 57.7323 172.96 57.6765 173.127 57.6206C173.294 57.5648 173.406 57.4531 173.573 57.3415C173.685 57.2298 173.797 57.0623 173.908 56.8948C174.02 56.7273 174.076 56.504 174.076 56.2806H175.025Z" fill="#222728"/>
<path d="M176.029 52.428H177.034V55.2755L180.048 52.428H181.387L178.596 55.0522L181.443 58.2905H180.103L177.759 55.6663L177.034 56.2805V58.3464H176.029V52.428Z" fill="#222728"/>
<path d="M182.28 52.4281H183.285V56.8949L186.187 52.3723H187.359V58.2349H186.354V53.7682L183.452 58.2907H182.28V52.4281Z" fill="#222728"/>
<path d="M188.922 52.4281H189.926V56.8948L192.828 52.3723H194V58.2348H192.996V53.7681L190.094 58.2907H188.922V52.4281ZM190.54 50.1389C190.596 50.3623 190.708 50.5298 190.819 50.6973C190.987 50.8089 191.21 50.9206 191.489 50.9206C191.768 50.9206 191.991 50.8648 192.159 50.6973C192.326 50.5856 192.382 50.3623 192.438 50.1389H193.386C193.386 50.3623 193.331 50.5298 193.219 50.7531C193.107 50.9206 192.996 51.0881 192.828 51.1998C192.661 51.3114 192.438 51.4231 192.214 51.4789C191.991 51.5348 191.712 51.5906 191.433 51.5906C191.154 51.5906 190.875 51.5348 190.652 51.4789C190.428 51.4231 190.205 51.3114 190.038 51.1998C189.87 51.0881 189.759 50.9206 189.647 50.7531C189.535 50.5856 189.48 50.3623 189.48 50.1389H190.54Z" fill="#222728"/>
<path d="M198.744 52.3723H202.428V53.2657H199.749V58.2349H198.744V52.3723Z" fill="#222728"/>
<path d="M203.265 52.3723H204.27V53.1539C204.325 53.0423 204.437 52.8748 204.549 52.7631C204.66 52.6514 204.772 52.5398 204.939 52.4281C205.107 52.3164 205.274 52.2606 205.442 52.2048C205.609 52.1489 205.832 52.1489 206.111 52.1489C206.446 52.1489 206.725 52.2048 207.004 52.3164C207.283 52.4281 207.563 52.5956 207.786 52.8748C208.009 53.1539 208.176 53.4331 208.344 53.7681C208.456 54.1031 208.567 54.5498 208.567 55.0523C208.567 55.6665 208.511 56.169 208.4 56.5598C208.288 57.0065 208.121 57.3415 207.897 57.5648C207.674 57.844 207.395 58.0115 207.06 58.1232C206.725 58.2348 206.391 58.2907 206 58.2907C205.777 58.2907 205.609 58.2907 205.442 58.2348C205.274 58.179 205.107 58.1232 204.995 58.0115C204.884 57.9557 204.716 57.844 204.66 57.7323C204.605 57.6206 204.493 57.509 204.437 57.4531V60.4123H203.433L203.265 52.3723ZM204.325 55.3315C204.325 55.6665 204.381 55.9456 204.437 56.2248C204.493 56.504 204.605 56.7273 204.716 56.8948C204.828 57.1181 204.995 57.2298 205.218 57.3415C205.442 57.4531 205.665 57.509 205.944 57.509C206.223 57.509 206.446 57.4531 206.67 57.3415C206.893 57.2298 207.06 57.0623 207.172 56.8948C207.283 56.6715 207.395 56.4481 207.451 56.169C207.507 55.8898 207.563 55.6106 207.563 55.2756C207.563 54.9406 207.507 54.6615 207.451 54.3823C207.395 54.1031 207.283 53.8798 207.172 53.6564C207.06 53.4331 206.893 53.3214 206.67 53.2098C206.446 53.0981 206.223 53.0423 205.944 53.0423C205.665 53.0423 205.442 53.0981 205.218 53.2098C204.995 53.3214 204.828 53.4889 204.716 53.6564C204.605 53.8798 204.493 54.1031 204.437 54.3823C204.325 54.6615 204.325 54.9965 204.325 55.3315Z" fill="#222728"/>
<path d="M209.069 52.3722H210.186L211.804 57.1181L213.367 52.3164H214.483L212.251 58.4023C212.139 58.6815 212.027 58.9606 211.916 59.184C211.804 59.4073 211.748 59.6307 211.637 59.7423C211.525 59.9098 211.469 60.0215 211.358 60.1332C211.246 60.2448 211.134 60.3007 211.023 60.3565C210.911 60.4123 210.8 60.4682 210.632 60.4682C210.521 60.4682 210.353 60.524 210.13 60.524C209.962 60.524 209.851 60.524 209.795 60.524C209.739 60.524 209.628 60.524 209.572 60.4682V59.5748C209.628 59.5748 209.739 59.6307 209.851 59.6307C209.962 59.6307 210.074 59.6865 210.186 59.6865C210.353 59.6865 210.521 59.6306 210.632 59.5748C210.744 59.4631 210.855 59.3515 210.911 59.184L211.246 58.3465L209.069 52.3722Z" fill="#222728"/>
<path d="M215.376 52.3164H216.883L218.502 57.1181L220.064 52.3164H221.46V58.179H220.511V53.4889L218.948 58.2348H217.943L216.325 53.5448V58.2348H215.376V52.3164Z" fill="#222728"/>
<path d="M222.966 52.3163H223.971V56.783L226.873 52.2605H228.045V58.1231H227.041V53.6563L224.139 58.1789H222.966V52.3163Z" fill="#222728"/>
<path d="M229.664 52.2605H230.668V54.6055H233.459V52.2605H234.464V58.1231H233.459V55.4989H230.668V58.1231H229.664V52.2605Z" fill="#222728"/>
<path d="M235.971 52.2605H239.654V53.1538H236.975V58.1231H235.971V52.2605Z" fill="#222728"/>
<path d="M248.472 56.0016C248.472 56.1691 248.416 56.2807 248.361 56.4482C248.305 56.6157 248.249 56.7832 248.193 56.9507C248.137 57.1182 248.026 57.2857 247.858 57.4532C247.747 57.6208 247.579 57.7324 247.412 57.8441C247.244 57.9558 247.021 58.0674 246.742 58.1233C246.519 58.1791 246.184 58.2349 245.905 58.2349C245.738 58.2349 245.57 58.2349 245.347 58.1791C245.179 58.1233 244.956 58.0674 244.789 57.9558C244.621 57.8441 244.454 57.7324 244.286 57.5649C244.119 57.3974 243.952 57.2299 243.84 57.0066C243.728 56.7832 243.617 56.5041 243.561 56.2249C243.505 55.9457 243.449 55.5549 243.449 55.1641C243.449 54.6616 243.505 54.2149 243.673 53.8799C243.784 53.489 244.007 53.154 244.231 52.8749C244.454 52.5957 244.733 52.3724 245.068 52.2607C245.403 52.0932 245.738 52.0374 246.072 52.0374C246.407 52.0374 246.686 52.0932 246.91 52.149C247.133 52.2049 247.356 52.3165 247.524 52.4282C247.691 52.5399 247.858 52.6515 247.97 52.819C248.082 52.9865 248.193 53.0982 248.249 53.2657C248.305 53.4332 248.361 53.6007 248.416 53.7682C248.472 53.9357 248.472 54.1032 248.472 54.2149H247.524C247.468 53.824 247.356 53.489 247.077 53.2657C246.854 53.0424 246.519 52.9307 246.128 52.9307C245.849 52.9307 245.626 52.9865 245.403 53.0982C245.179 53.2099 245.012 53.3774 244.9 53.6007C244.789 53.824 244.677 54.0474 244.566 54.3265C244.51 54.6057 244.454 54.9407 244.454 55.2757C244.454 55.6666 244.51 56.0016 244.566 56.2807C244.621 56.5599 244.733 56.7832 244.9 56.9507C245.012 57.1182 245.179 57.2857 245.403 57.3416C245.626 57.4532 245.849 57.4532 246.072 57.4532C246.24 57.4532 246.407 57.3974 246.575 57.3416C246.742 57.2857 246.854 57.1741 247.021 57.0624C247.133 56.9507 247.244 56.7832 247.356 56.6157C247.468 56.4482 247.524 56.2249 247.524 56.0016H248.472Z" fill="#222728"/>
<path d="M249.477 53.9915C249.477 53.6565 249.533 53.3215 249.7 53.0982C249.812 52.8749 249.979 52.6515 250.202 52.484C250.426 52.3165 250.649 52.2049 250.984 52.149C251.319 52.0932 251.598 52.0374 251.933 52.0374C252.212 52.0374 252.491 52.0374 252.77 52.149C253.049 52.2607 253.272 52.3165 253.495 52.4282C253.719 52.5399 253.886 52.7074 253.998 52.9307C254.109 53.154 254.165 53.3774 254.165 53.6565V57.0624C254.165 57.1741 254.165 57.2299 254.221 57.2857C254.277 57.3416 254.332 57.3974 254.444 57.3974C254.5 57.3974 254.556 57.3974 254.612 57.3974C254.667 57.3974 254.723 57.3974 254.779 57.3416V58.0116C254.667 58.0116 254.612 58.0674 254.5 58.0674C254.388 58.0674 254.332 58.0674 254.221 58.1233C254.053 58.1233 253.886 58.1233 253.774 58.0674C253.663 58.0116 253.551 58.0116 253.439 57.8999C253.328 57.8441 253.272 57.7324 253.216 57.6207C253.16 57.5091 253.16 57.3974 253.105 57.2299C252.993 57.3416 252.826 57.5091 252.714 57.6207C252.602 57.7324 252.435 57.8441 252.267 57.8999C252.1 58.0116 251.877 58.0674 251.709 58.1233C251.486 58.1791 251.263 58.1791 250.984 58.1791C250.761 58.1791 250.537 58.1233 250.314 58.0674C250.091 58.0116 249.923 57.8999 249.756 57.7324C249.588 57.5649 249.421 57.3974 249.365 57.2299C249.254 57.0066 249.198 56.7832 249.198 56.5041C249.198 56.2249 249.254 55.9457 249.365 55.7224C249.477 55.4991 249.588 55.3316 249.756 55.1641C249.923 54.9966 250.091 54.8849 250.314 54.8291C250.537 54.7732 250.761 54.7174 250.984 54.6616L252.658 54.4382C252.826 54.4382 252.937 54.3824 253.049 54.2707C253.16 54.159 253.16 53.9915 253.16 53.7682C253.16 53.4332 253.049 53.154 252.826 52.9865C252.602 52.819 252.267 52.7632 251.821 52.7632C251.374 52.7632 251.04 52.8749 250.816 53.0424C250.593 53.2099 250.481 53.489 250.426 53.8799L249.477 53.9915ZM253.16 55.1082C253.105 55.1641 252.993 55.2199 252.881 55.2757C252.77 55.3316 252.602 55.3316 252.491 55.3874C252.323 55.3874 252.212 55.4432 252.044 55.4432C251.877 55.4432 251.709 55.4991 251.542 55.4991C251.374 55.4991 251.207 55.5549 251.04 55.6107C250.872 55.6666 250.761 55.7224 250.649 55.7782C250.537 55.8341 250.426 55.9457 250.37 56.0574C250.314 56.1691 250.258 56.2807 250.258 56.4482C250.258 56.6157 250.314 56.7832 250.314 56.8949C250.37 57.0066 250.426 57.1182 250.537 57.2299C250.649 57.3416 250.761 57.3974 250.872 57.4532C250.984 57.5091 251.151 57.5091 251.319 57.5091C251.43 57.5091 251.542 57.5091 251.654 57.4532C251.765 57.4532 251.933 57.3974 252.044 57.3416C252.156 57.2857 252.323 57.2299 252.435 57.1741C252.546 57.1182 252.658 57.0066 252.77 56.8949C252.881 56.7832 252.937 56.6716 252.993 56.5599C253.049 56.4482 253.105 56.2807 253.105 56.1132L253.16 55.1082Z" fill="#222728"/>
<path d="M259.802 53.0424H257.514L257.458 54.4382C257.458 55.1641 257.402 55.7224 257.29 56.2249C257.179 56.7274 257.067 57.0624 256.956 57.3974C256.788 57.6766 256.621 57.8999 256.398 58.0116C256.174 58.1233 255.951 58.1791 255.672 58.1791C255.56 58.1791 255.505 58.1791 255.393 58.1233C255.337 58.0674 255.281 58.0674 255.225 58.0116V57.1182C255.393 57.1741 255.505 57.1741 255.616 57.1741C255.672 57.1741 255.784 57.1741 255.839 57.1182C255.895 57.1182 256.007 57.0624 256.063 56.9507C256.118 56.8949 256.174 56.7832 256.23 56.6157C256.286 56.5041 256.342 56.2807 256.398 56.1132C256.453 55.8899 256.453 55.6107 256.509 55.3316C256.509 55.0524 256.565 54.6616 256.565 54.2149L256.621 52.0374H260.918V57.8999H259.914L259.802 53.0424Z" fill="#222728"/>
<path d="M267.56 55.0522C267.56 55.5547 267.504 55.9456 267.392 56.3364C267.281 56.7273 267.113 57.0623 266.834 57.3414C266.611 57.6206 266.332 57.8439 265.941 57.9556C265.606 58.1231 265.216 58.1789 264.769 58.1789C264.323 58.1789 263.932 58.1231 263.597 57.9556C263.262 57.7881 262.983 57.6206 262.704 57.3414C262.481 57.0623 262.258 56.7273 262.146 56.3364C262.035 55.9456 261.979 55.4989 261.979 55.0522C261.979 54.6056 262.035 54.1589 262.146 53.7681C262.258 53.3772 262.425 53.0422 262.704 52.763C262.927 52.4839 263.207 52.2605 263.597 52.1489C263.932 51.9814 264.323 51.9255 264.769 51.9255C265.216 51.9255 265.606 51.9814 265.941 52.1489C266.276 52.3164 266.555 52.4839 266.834 52.763C267.058 53.0422 267.281 53.3772 267.392 53.7681C267.504 54.1589 267.56 54.6056 267.56 55.0522ZM266.499 55.1081C266.499 54.7731 266.444 54.4939 266.388 54.2147C266.332 53.9356 266.22 53.7122 266.053 53.4889C265.885 53.2656 265.718 53.1539 265.495 53.0422C265.272 52.9305 265.048 52.8747 264.713 52.8747C264.434 52.8747 264.155 52.9305 263.988 53.0422C263.765 53.1539 263.597 53.3214 263.43 53.4889C263.262 53.7122 263.151 53.9356 263.095 54.2147C263.039 54.4939 262.983 54.7731 262.983 55.1081C262.983 55.4431 263.039 55.7222 263.095 56.0014C263.151 56.2806 263.262 56.5039 263.43 56.7272C263.597 56.9506 263.765 57.0623 263.988 57.1739C264.211 57.2856 264.434 57.3414 264.713 57.3414C264.992 57.3414 265.272 57.2856 265.495 57.1739C265.718 57.0623 265.885 56.8948 266.053 56.7272C266.22 56.5039 266.332 56.2806 266.388 56.0014C266.499 55.7222 266.555 55.3872 266.499 55.1081Z" fill="#222728"/>
<path d="M268.676 52.1489H269.681V54.4939H272.471V52.1489H273.476V58.0115H272.471V55.3873H269.681V58.0115H268.676V52.1489Z" fill="#222728"/>
<path d="M129.482 66.9449H126.692V71.9141H125.687V66.0515H130.543V71.9141H129.538L129.482 66.9449Z" fill="#222728"/>
<path d="M137.184 68.9548C137.184 69.4573 137.129 69.8482 137.017 70.239C136.905 70.6298 136.738 70.9648 136.459 71.244C136.236 71.5232 135.957 71.7465 135.566 71.8582C135.231 72.0257 134.84 72.0815 134.394 72.0815C133.947 72.0815 133.557 72.0257 133.222 71.8582C132.887 71.6907 132.608 71.5232 132.329 71.244C132.106 70.9648 131.882 70.6298 131.771 70.239C131.659 69.8482 131.603 69.4015 131.603 68.9548C131.603 68.5081 131.659 68.0615 131.771 67.6706C131.882 67.2798 132.05 66.9448 132.329 66.6656C132.608 66.3865 132.831 66.1631 133.222 66.0515C133.557 65.884 133.947 65.8281 134.394 65.8281C134.84 65.8281 135.231 65.884 135.566 66.0515C135.901 66.219 136.18 66.3865 136.459 66.6656C136.738 66.9448 136.905 67.2798 137.017 67.6706C137.129 68.0615 137.184 68.4523 137.184 68.9548ZM136.18 68.9548C136.18 68.6198 136.124 68.3406 136.068 68.0615C136.012 67.7823 135.901 67.559 135.733 67.3356C135.566 67.1123 135.398 67.0006 135.175 66.889C134.952 66.7773 134.729 66.7215 134.394 66.7215C134.115 66.7215 133.836 66.7773 133.668 66.889C133.445 67.0006 133.278 67.1681 133.11 67.3356C132.943 67.559 132.831 67.7823 132.775 68.0615C132.719 68.3406 132.664 68.6198 132.664 68.9548C132.664 69.2898 132.719 69.569 132.775 69.8482C132.831 70.1273 132.943 70.3507 133.11 70.574C133.278 70.7973 133.445 70.909 133.668 71.0207C133.892 71.1323 134.115 71.1882 134.394 71.1882C134.673 71.1882 134.952 71.1323 135.175 71.0207C135.398 70.909 135.566 70.7415 135.733 70.574C135.901 70.3507 136.012 70.1273 136.068 69.8482C136.124 69.569 136.18 69.2898 136.18 68.9548Z" fill="#222728"/>
<path d="M140.868 65.9958H141.984L143.603 70.7417L145.165 65.9399H146.282L144.049 72.0258C143.938 72.305 143.826 72.5842 143.714 72.8075C143.603 73.0308 143.547 73.2542 143.435 73.3658C143.324 73.5334 143.268 73.645 143.156 73.7567C143.045 73.8684 142.933 73.9242 142.821 73.98C142.71 74.0359 142.598 74.0917 142.431 74.0917C142.319 74.0917 142.152 74.1475 141.928 74.1475C141.761 74.1475 141.649 74.1475 141.594 74.1475C141.538 74.1475 141.426 74.1475 141.37 74.0917V73.1984C141.426 73.1984 141.538 73.2542 141.649 73.2542C141.761 73.2542 141.873 73.31 141.984 73.31C142.152 73.31 142.319 73.2542 142.431 73.1984C142.542 73.0867 142.654 72.975 142.71 72.8075L143.045 71.97L140.868 65.9958Z" fill="#222728"/>
<path d="M149.24 69.6808L147.844 71.8583H146.561L148.626 68.8433L146.617 65.9958H147.9L149.295 68.0058L150.635 65.9399H151.863L149.854 68.7875L151.974 71.8025H150.691L149.24 69.6808Z" fill="#222728"/>
<path d="M158.114 68.8992C158.114 69.4017 158.058 69.7925 157.946 70.1833C157.835 70.5742 157.667 70.9092 157.388 71.1883C157.165 71.4675 156.886 71.6909 156.495 71.8025C156.16 71.97 155.77 72.0259 155.323 72.0259C154.877 72.0259 154.486 71.97 154.151 71.8025C153.816 71.635 153.537 71.4675 153.258 71.1883C153.035 70.9092 152.812 70.5742 152.7 70.1833C152.588 69.7925 152.533 69.3458 152.533 68.8992C152.533 68.4525 152.588 68.0058 152.7 67.615C152.812 67.2241 152.979 66.8891 153.258 66.61C153.481 66.3308 153.76 66.1075 154.151 65.9958C154.486 65.8283 154.877 65.7725 155.323 65.7725C155.77 65.7725 156.16 65.8283 156.495 65.9958C156.83 66.1633 157.109 66.3308 157.388 66.61C157.611 66.8891 157.835 67.2241 157.946 67.615C158.058 67.95 158.114 68.3967 158.114 68.8992ZM157.109 68.8992C157.109 68.5642 157.053 68.285 156.997 68.0058C156.942 67.7266 156.83 67.5033 156.663 67.28C156.495 67.0566 156.328 66.945 156.104 66.8333C155.881 66.7216 155.658 66.6658 155.323 66.6658C155.044 66.6658 154.765 66.7216 154.598 66.8333C154.374 66.945 154.207 67.1125 154.039 67.28C153.872 67.5033 153.76 67.7266 153.705 68.0058C153.649 68.285 153.593 68.5642 153.593 68.8992C153.593 69.2342 153.649 69.5133 153.705 69.7925C153.76 70.0717 153.872 70.295 154.039 70.5183C154.207 70.7417 154.374 70.8533 154.598 70.965C154.821 71.0767 155.044 71.1325 155.323 71.1325C155.602 71.1325 155.881 71.0767 156.104 70.965C156.328 70.8533 156.495 70.6858 156.663 70.5183C156.83 70.295 156.942 70.0717 156.997 69.7925C157.053 69.5133 157.109 69.2342 157.109 68.8992Z" fill="#222728"/>
<path d="M164.253 71.8025H159.621V73.2542H158.672V70.965H159.453C159.621 70.5742 159.732 70.1833 159.844 69.7366C159.955 69.3458 160.011 68.8991 160.067 68.5083C160.123 68.1175 160.123 67.6708 160.179 67.2241C160.179 66.7775 160.179 66.3866 160.179 65.9399H164.365V70.9092H165.202V73.1984H164.253V71.8025ZM163.36 70.9092V66.7774H161.183C161.183 67.1125 161.128 67.4475 161.128 67.7825C161.128 68.1175 161.072 68.5083 161.016 68.8433C160.96 69.1783 160.904 69.5691 160.848 69.9041C160.793 70.2392 160.681 70.5742 160.569 70.9092H163.36Z" fill="#222728"/>
<path d="M165.537 65.9399H166.653L168.271 70.6858L169.834 65.884H170.95L168.718 71.9699C168.606 72.2491 168.495 72.5283 168.383 72.7516C168.271 72.975 168.216 73.1983 168.104 73.31C167.992 73.4775 167.937 73.5891 167.825 73.7008C167.713 73.8125 167.602 73.8683 167.49 73.9241C167.378 73.98 167.267 74.0358 167.099 74.0358C166.988 74.0358 166.82 74.0916 166.597 74.0916C166.43 74.0916 166.318 74.0916 166.262 74.0916C166.206 74.0916 166.095 74.0916 166.039 74.0358V73.1425C166.095 73.1425 166.206 73.1983 166.318 73.1983C166.43 73.1983 166.541 73.2541 166.653 73.2541C166.82 73.2541 166.988 73.1983 167.099 73.1425C167.211 73.0308 167.323 72.9191 167.378 72.7516L167.713 71.9141L165.537 65.9399Z" fill="#222728"/>
<path d="M176.587 68.3408H177.09C177.201 68.3408 177.369 68.3408 177.536 68.285C177.704 68.2292 177.815 68.1733 177.927 68.1175C178.038 68.0616 178.15 67.95 178.206 67.8383C178.262 67.7266 178.317 67.615 178.317 67.4475C178.317 67.3358 178.317 67.2241 178.262 67.1125C178.206 67.0008 178.15 66.8891 178.038 66.8333C177.927 66.7775 177.815 66.6658 177.648 66.6658C177.48 66.61 177.313 66.61 177.145 66.61C177.034 66.61 176.922 66.61 176.755 66.6658C176.587 66.7216 176.476 66.7216 176.364 66.8333C176.252 66.8891 176.085 67.0008 176.029 67.1683C175.918 67.3358 175.862 67.5033 175.806 67.7266H174.857C174.857 67.4475 174.913 67.2241 175.025 67.0566C175.08 66.8333 175.192 66.6658 175.304 66.5541C175.415 66.3866 175.583 66.275 175.694 66.1633C175.862 66.0516 176.029 65.9958 176.197 65.94C176.364 65.8841 176.531 65.8283 176.699 65.8283C176.866 65.8283 177.034 65.7725 177.201 65.7725C177.48 65.7725 177.759 65.8283 177.983 65.8841C178.262 65.94 178.485 66.0516 178.708 66.1633C178.931 66.275 179.099 66.4983 179.21 66.6658C179.322 66.8891 179.378 67.1125 179.378 67.3916C179.378 67.5591 179.378 67.7266 179.322 67.8383C179.266 67.95 179.21 68.1175 179.099 68.1733C179.043 68.285 178.931 68.3408 178.82 68.4525C178.708 68.5083 178.596 68.5642 178.541 68.62C178.652 68.62 178.764 68.6758 178.876 68.7317C178.987 68.7875 179.099 68.8433 179.21 68.955C179.322 69.0667 179.434 69.1783 179.489 69.3458C179.545 69.5133 179.601 69.6808 179.601 69.96C179.601 70.295 179.545 70.5742 179.378 70.7975C179.21 71.0208 179.043 71.2442 178.82 71.4117C178.596 71.5792 178.317 71.6909 178.038 71.7467C177.759 71.8025 177.48 71.8584 177.145 71.8584C176.755 71.8584 176.42 71.8025 176.141 71.7467C175.862 71.6909 175.583 71.5234 175.359 71.3559C175.136 71.1883 174.969 70.965 174.801 70.7417C174.69 70.5183 174.578 70.2392 174.578 69.96H175.583C175.583 70.1833 175.694 70.3508 175.75 70.5183C175.806 70.6858 175.973 70.7975 176.141 70.8533C176.308 70.9092 176.42 71.0208 176.587 71.0208C176.755 71.0208 176.922 71.0767 177.09 71.0767C177.536 71.0767 177.927 70.965 178.15 70.7975C178.373 70.63 178.485 70.3508 178.485 70.0717C178.485 69.96 178.485 69.7925 178.429 69.7367C178.373 69.625 178.317 69.5133 178.206 69.4575C178.094 69.4017 177.983 69.3458 177.815 69.29C177.648 69.2342 177.424 69.2342 177.201 69.2342C177.145 69.2342 177.09 69.2342 177.034 69.2342C176.978 69.2342 176.922 69.2342 176.866 69.2342C176.811 69.2342 176.755 69.2342 176.699 69.2342C176.643 69.2342 176.587 69.2342 176.531 69.2342L176.587 68.3408Z" fill="#222728"/>
<path d="M180.773 67.6148C180.773 67.2798 180.829 66.9448 180.996 66.7215C181.108 66.4982 181.275 66.2748 181.499 66.1073C181.722 65.9398 181.945 65.8281 182.28 65.7723C182.615 65.7165 182.894 65.6606 183.229 65.6606C183.508 65.6606 183.787 65.6606 184.066 65.7723C184.345 65.8281 184.568 65.9398 184.792 66.0515C185.015 66.1632 185.182 66.3307 185.294 66.554C185.405 66.7773 185.461 67.0007 185.461 67.2798V70.6857C185.461 70.7974 185.461 70.8532 185.517 70.909C185.573 70.9649 185.629 71.0207 185.74 71.0207C185.796 71.0207 185.852 71.0207 185.908 71.0207C185.964 71.0207 186.019 71.0207 186.075 70.9649V71.6349C185.964 71.6349 185.908 71.6907 185.796 71.6907C185.684 71.6907 185.629 71.6907 185.517 71.7465C185.35 71.7465 185.182 71.7465 185.071 71.6907C184.959 71.6349 184.847 71.6349 184.736 71.5232C184.624 71.4674 184.568 71.3557 184.512 71.244C184.457 71.1324 184.457 71.0207 184.401 70.8532C184.289 70.9649 184.122 71.1324 184.01 71.244C183.843 71.3557 183.731 71.4674 183.564 71.5232C183.396 71.6349 183.173 71.6907 183.006 71.7465C182.782 71.8024 182.559 71.8024 182.28 71.8024C182.057 71.8024 181.833 71.7465 181.61 71.6907C181.387 71.6349 181.22 71.5232 181.052 71.3557C180.885 71.1882 180.717 71.0207 180.661 70.8532C180.55 70.6299 180.494 70.4065 180.494 70.1274C180.494 69.8482 180.55 69.569 180.661 69.3457C180.773 69.1223 180.885 68.9548 181.052 68.7873C181.22 68.6198 181.387 68.5082 181.61 68.4523C181.833 68.3965 182.057 68.3407 182.28 68.2848L183.954 68.0615C184.122 68.0615 184.233 68.0057 184.345 67.894C184.457 67.7823 184.457 67.6148 184.457 67.3915C184.457 67.0565 184.345 66.7773 184.122 66.6098C183.899 66.4423 183.564 66.3865 183.117 66.3865C182.671 66.3865 182.336 66.4982 182.113 66.6657C181.889 66.8332 181.778 67.1123 181.722 67.5032L180.773 67.6148ZM184.457 68.7315C184.401 68.7873 184.289 68.8432 184.178 68.899C184.066 68.9548 183.899 68.9548 183.787 69.0107C183.619 69.0107 183.508 69.0665 183.34 69.0665C183.173 69.0665 183.006 69.1223 182.838 69.1223C182.671 69.1223 182.503 69.1782 182.336 69.234C182.168 69.2898 182.057 69.3457 181.945 69.4015C181.833 69.4574 181.722 69.569 181.666 69.6807C181.61 69.7924 181.554 69.904 181.554 70.0715C181.554 70.239 181.61 70.4065 181.61 70.5182C181.666 70.6299 181.722 70.7415 181.833 70.8532C181.945 70.9649 182.057 71.0207 182.168 71.0765C182.28 71.1324 182.447 71.1324 182.615 71.1324C182.726 71.1324 182.838 71.1324 182.95 71.0765C183.061 71.0765 183.229 71.0207 183.34 70.9649C183.452 70.909 183.619 70.8532 183.731 70.7974C183.843 70.7415 183.954 70.6299 184.066 70.5182C184.178 70.4065 184.233 70.2949 184.289 70.1832C184.345 70.0715 184.401 69.904 184.401 69.7365L184.457 68.7315Z" fill="#222728"/>
<path d="M194.503 68.229H195.005L196.958 65.8281H198.186L195.842 68.6198L198.298 71.6907H197.014L195.005 69.0107H194.503V71.6907H193.498V69.0107H192.996L190.987 71.6907H189.703L192.159 68.6198L189.815 65.8281H191.042L192.996 68.229H193.498V65.8281H194.503V68.229Z" fill="#222728"/>
<path d="M199.191 65.8283H200.195V70.295L203.098 65.7725H204.27V71.635H203.265V67.1683L200.363 71.6908H199.191V65.8283Z" fill="#222728"/>
<path d="M205.832 65.8281H208.4C209.125 65.8281 209.683 65.9398 210.018 66.219C210.409 66.4981 210.576 66.889 210.576 67.3915C210.576 67.6706 210.521 67.894 210.353 68.0615C210.242 68.229 210.018 68.3965 209.851 68.564C210.186 68.6757 210.409 68.8432 210.632 69.0665C210.8 69.2898 210.911 69.569 210.911 69.904C210.911 70.1832 210.855 70.4065 210.8 70.6298C210.688 70.8532 210.576 71.0207 210.353 71.1882C210.186 71.3557 209.907 71.4673 209.628 71.5232C209.349 71.579 209.014 71.6348 208.567 71.6348H205.888L205.832 65.8281ZM206.837 68.2848H208.4C208.735 68.2848 209.014 68.229 209.237 68.0615C209.46 67.9498 209.516 67.7265 209.516 67.4473C209.516 67.2798 209.46 67.1681 209.404 67.0565C209.349 66.9448 209.293 66.889 209.181 66.7773C209.069 66.6656 208.958 66.6656 208.846 66.6656C208.735 66.6656 208.623 66.6098 208.511 66.6098H206.837V68.2848ZM206.837 70.8532H208.4C208.679 70.8532 208.902 70.8532 209.069 70.7973C209.237 70.7415 209.404 70.6857 209.516 70.6298C209.628 70.574 209.683 70.4623 209.739 70.3507C209.795 70.239 209.795 70.1273 209.795 69.9598C209.795 69.7923 209.795 69.6807 209.739 69.569C209.683 69.4573 209.628 69.3457 209.516 69.2898C209.404 69.234 209.237 69.1782 209.069 69.1223C208.902 69.0665 208.679 69.0665 208.4 69.0665H206.837V70.8532Z" fill="#222728"/>
<path d="M217.274 68.6758C217.274 69.1783 217.218 69.5691 217.106 69.96C216.995 70.3508 216.827 70.6858 216.548 70.965C216.325 71.2441 216.046 71.4675 215.655 71.5791C215.32 71.7466 214.93 71.8025 214.483 71.8025C214.037 71.8025 213.646 71.7466 213.311 71.5791C212.976 71.4116 212.697 71.2441 212.418 70.965C212.195 70.6858 211.972 70.3508 211.86 69.96C211.748 69.5691 211.693 69.1224 211.693 68.6758C211.693 68.2291 211.748 67.7824 211.86 67.3916C211.972 67.0008 212.139 66.6658 212.418 66.3866C212.697 66.1074 212.92 65.8841 213.311 65.7724C213.646 65.6049 214.037 65.5491 214.483 65.5491C214.93 65.5491 215.32 65.6049 215.655 65.7724C215.99 65.9399 216.269 66.1074 216.548 66.3866C216.771 66.6658 216.995 67.0008 217.106 67.3916C217.218 67.7824 217.274 68.2291 217.274 68.6758ZM216.269 68.6758C216.269 68.3408 216.213 68.0616 216.158 67.7824C216.102 67.5033 215.99 67.2799 215.823 67.0566C215.655 66.8333 215.488 66.7216 215.265 66.6099C215.041 66.4983 214.818 66.4424 214.483 66.4424C214.204 66.4424 213.925 66.4983 213.758 66.6099C213.534 66.7216 213.367 66.8891 213.2 67.0566C213.032 67.2799 212.92 67.5033 212.865 67.7824C212.809 68.0616 212.753 68.3408 212.753 68.6758C212.753 69.0108 212.809 69.2899 212.865 69.5691C212.92 69.8483 213.032 70.0716 213.2 70.295C213.367 70.5183 213.534 70.63 213.758 70.7416C213.981 70.8533 214.204 70.9091 214.483 70.9091C214.762 70.9091 215.041 70.8533 215.265 70.7416C215.488 70.63 215.655 70.4625 215.823 70.295C215.99 70.0716 216.102 69.8483 216.158 69.5691C216.213 69.3458 216.269 69.0108 216.269 68.6758Z" fill="#222728"/>
<path d="M220.009 66.6099H217.943V65.7166H223.078V66.6099H221.013V71.5791H220.009V66.6099Z" fill="#222728"/>
<path d="M224.139 65.7166H225.143V68.0616H227.934V65.7166H228.938V71.5791H227.934V68.9549H225.143V71.5791H224.139V65.7166Z" fill="#222728"/>
<path d="M230.445 65.7166H231.45V67.8941H233.236C233.571 67.8941 233.85 67.9499 234.129 68.0057C234.408 68.1174 234.631 68.2291 234.799 68.3966C234.966 68.5641 235.133 68.7316 235.189 68.9549C235.245 69.1783 235.357 69.4574 235.357 69.7366C235.357 70.0158 235.301 70.2949 235.189 70.5183C235.078 70.7416 234.966 70.9091 234.799 71.0766C234.631 71.2441 234.408 71.3558 234.129 71.4675C233.85 71.5791 233.571 71.5791 233.236 71.5791H230.445V65.7166ZM231.506 70.7974H233.068C233.236 70.7974 233.403 70.7974 233.571 70.7416C233.738 70.6858 233.85 70.6299 233.961 70.5741C234.073 70.5183 234.185 70.4066 234.24 70.2391C234.296 70.1274 234.352 69.9599 234.352 69.7924C234.352 69.6249 234.296 69.4574 234.24 69.3458C234.185 69.2341 234.073 69.1224 233.961 69.0108C233.85 68.9549 233.682 68.8433 233.515 68.8433C233.347 68.7874 233.18 68.7874 232.957 68.7874H231.45L231.506 70.7974ZM236.194 65.7166H237.198V71.5791H236.194V65.7166Z" fill="#222728"/>
<path d="M238.705 65.7166H240.212L241.831 70.5183L243.393 65.7166H244.789V71.5791H243.84V66.8891L242.277 71.635H241.273L239.654 66.9449V71.635H238.705V65.7166Z" fill="#222728"/>
<path d="M246.296 65.6608H247.3V70.1275L250.202 65.605H251.374V71.4675H250.37V67.0008L247.468 71.5234H246.296V65.6608Z" fill="#222728"/>
</svg>
