<svg width="111" height="78" viewBox="0 0 111 78" fill="none" xmlns="http://www.w3.org/2000/svg">
<path d="M36.6123 12.06C25.3942 16.6384 16.4644 27.5818 4.46491 25.851C3.9068 25.7951 3.34868 25.9068 2.90219 26.1301C5.19046 32.4394 11.2181 40.1445 26.622 43.1595C51.6255 48.017 43.3096 70.9648 50.007 75.8223C55.0858 79.5632 76.7407 61.2497 79.1405 38.5253C78.6382 34.0586 77.3546 29.536 74.8989 25.0693C66.6388 9.65914 48.6117 7.20245 36.6123 12.06Z" fill="#FFC11C"/>
<path d="M62.5087 55.3874C74.1733 55.3874 78.9731 44.1089 78.9731 44.1089C78.9731 44.1089 99.0652 50.8648 108.665 33.8355L105.818 32.4396C105.818 32.4396 109.111 19.3745 92.4795 16.0803V3.01514C92.4795 3.01514 65.8574 19.4303 57.5415 32.4955C56.4253 34.2263 55.4765 36.0688 54.6951 37.9672C52.2953 47.0123 54.137 55.3874 62.5087 55.3874Z" fill="#222728"/>
<path d="M51.7374 77.9994C50.677 77.9994 49.784 77.7202 49.0585 77.2177C46.3237 75.2077 45.654 71.2434 44.9284 66.7209C43.5889 58.3458 41.9146 47.9049 26.3432 44.834C16.8553 42.9915 9.76725 39.1948 5.24653 33.5555C1.45135 28.8097 0.279314 23.8404 0.000256598 20.4904C-0.111366 19.2621 0.390936 18.0337 1.28392 17.1404C2.23271 16.247 3.46056 15.8562 4.68841 16.0795C11.8323 17.1404 17.9715 13.1203 24.5015 8.87694C28.1292 6.53192 31.8686 4.07523 35.9986 2.40021C42.6402 -0.279821 50.5096 -0.726492 57.5976 1.2277C63.3462 2.79105 71.2714 6.69942 76.406 16.1912C81.7639 26.1855 82.5453 37.5197 78.5269 48.9657C75.5131 57.62 69.597 66.3859 62.7323 72.3601C58.4906 75.9893 54.5838 77.9994 51.7374 77.9994ZM4.1303 19.3179C3.85124 19.3179 3.68381 19.4296 3.57219 19.5412C3.46056 19.6529 3.29313 19.8762 3.29313 20.2112C3.85124 26.5763 7.64642 37.7989 27.013 41.5956C44.8726 45.0573 46.826 57.285 48.2213 66.2184C48.8352 70.0709 49.3375 73.3651 51.0119 74.5935C51.9048 75.2635 55.5884 74.2026 60.5556 69.8476C66.9739 64.2642 72.5551 56.0566 75.4014 47.849C77.9688 40.5348 79.6989 29.3122 73.5038 17.7545C67.6995 7.03442 53.0769 -0.949828 37.2264 5.47107C33.4313 7.03442 29.8035 9.37945 26.2874 11.6686C19.5342 16.0795 12.5578 20.6021 4.18611 19.3737C4.18611 19.3179 4.18611 19.3179 4.1303 19.3179Z" fill="#222728"/>
<path d="M60.8344 61.9757C56.8718 61.9757 53.8022 60.3007 52.0162 57.0623C48.7792 51.1439 50.4535 40.4238 56.0346 31.6021C64.4622 18.3136 90.4144 2.28924 91.5307 1.5634C92.033 1.22839 92.7027 1.22839 93.205 1.50756C93.7073 1.78673 94.0422 2.34507 94.0422 2.95924V14.7402C99.4001 16.0244 103.251 18.4811 105.484 22.0545C107.772 25.6837 107.772 29.5362 107.549 31.4904L109.781 32.6071C110.562 32.9979 110.897 33.8354 110.618 34.6729C103.084 55.499 83.4938 52.3723 78.1359 51.0323C76.4058 54.159 71.1037 61.9757 60.8344 61.9757ZM90.8051 6.03011C84.0519 10.441 65.4109 23.1153 58.881 33.3887C53.9696 41.1497 52.2953 50.6414 54.9184 55.4431C56.0904 57.5648 58.0438 58.6257 60.8344 58.6257C71.2153 58.6257 75.5686 48.7989 75.7919 48.3522C76.1267 47.5706 77.0197 47.1797 77.8569 47.4589C77.9127 47.4589 83.5496 49.3014 90.0238 48.4639C98.0606 47.4031 103.753 42.8247 107.046 34.8404L105.093 33.8912C104.367 33.5562 104.032 32.7746 104.2 31.9929C104.2 31.9371 105.204 27.6378 102.749 23.7295C100.795 20.7144 97.2234 18.6486 92.1446 17.6436C91.3632 17.4761 90.8051 16.8061 90.8051 16.0244V6.03011Z" fill="#222728"/>
<path d="M4.46493 17.6995C2.90221 17.4761 1.50692 18.8162 1.61855 20.3795C1.73017 21.9429 2.12085 24.0087 2.90221 26.1862C3.29289 26.1304 3.68357 26.1304 4.13006 26.0746C11.6646 25.0137 11.553 20.547 10.4926 17.532C8.59497 17.867 6.58576 17.9787 4.46493 17.6995Z" fill="#222728"/>
<path d="M34.1566 16.1918C34.045 16.1918 33.9333 16.1918 33.8217 16.136C33.431 15.9685 33.2078 15.466 33.3752 15.0751C33.431 14.9635 34.6031 12.2834 36.8913 12.0601C38.454 11.8926 39.961 12.8418 41.4679 14.9076C41.7469 15.2985 41.6353 15.801 41.3004 16.0801C40.9097 16.3593 40.4074 16.2476 40.1284 15.9126C39.347 14.8518 38.175 13.6235 37.0588 13.7351C35.9425 13.8468 35.1054 15.2426 34.8821 15.801C34.7705 16.0243 34.4356 16.1918 34.1566 16.1918Z" fill="#222728"/>
<path d="M100.795 31.6019C101.72 31.6019 102.47 30.877 102.47 29.9827C102.47 29.0885 101.72 28.3635 100.795 28.3635C99.8707 28.3635 99.121 29.0885 99.121 29.9827C99.121 30.877 99.8707 31.6019 100.795 31.6019Z" fill="white"/>
<path d="M106.711 32.8862C106.209 33.6121 105.763 34.5612 105.763 35.6779C105.763 36.9621 106.544 37.5204 107.549 37.6321C108.107 36.5154 108.665 35.3429 109.111 34.0029L106.711 32.8862Z" fill="#222728"/>
</svg>
